<?xml version="1.0" standalone="no"?>
<!DOCTYPE svg PUBLIC "-//W3C//DTD SVG 20010904//EN"
 "http://www.w3.org/TR/2001/REC-SVG-20010904/DTD/svg10.dtd">
<svg version="1.0" xmlns="http://www.w3.org/2000/svg"
 width="1271.000000pt" height="861.000000pt" viewBox="0 0 1271.000000 861.000000"
 preserveAspectRatio="xMidYMid meet">

<g transform="translate(0.000000,861.000000) scale(0.100000,-0.100000)"
fill="#000000" stroke="none">
<path d="M12348 8603 c6 -2 18 -2 25 0 6 3 1 5 -13 5 -14 0 -19 -2 -12 -5z"/>
<path d="M12250 8590 c-11 -7 -5 -8 20 -4 43 8 51 14 19 14 -13 0 -31 -5 -39
-10z"/>
<path d="M12411 8598 c2 -2 18 -14 34 -28 l30 -25 -24 28 c-14 15 -29 27 -34
27 -6 0 -8 -1 -6 -2z"/>
<path d="M12198 8573 c7 -3 16 -2 19 1 4 3 -2 6 -13 5 -11 0 -14 -3 -6 -6z"/>
<path d="M12098 8553 c7 -3 16 -2 19 1 4 3 -2 6 -13 5 -11 0 -14 -3 -6 -6z"/>
<path d="M11958 8523 c7 -3 16 -2 19 1 4 3 -2 6 -13 5 -11 0 -14 -3 -6 -6z"/>
<path d="M12471 8514 c0 -11 3 -14 6 -6 3 7 2 16 -1 19 -3 4 -6 -2 -5 -13z"/>
<path d="M11918 8513 c7 -3 16 -2 19 1 4 3 -2 6 -13 5 -11 0 -14 -3 -6 -6z"/>
<path d="M12055 8510 c3 -5 13 -10 21 -10 8 0 14 5 14 10 0 6 -9 10 -21 10
-11 0 -17 -4 -14 -10z"/>
<path d="M11835 8500 c-24 -6 -18 -8 30 -9 42 0 56 2 45 9 -17 11 -32 11 -75
0z"/>
<path d="M11745 8480 c-27 -7 -25 -8 18 -9 30 -1 46 3 42 9 -7 11 -16 11 -60
0z"/>
<path d="M12458 8462 c-9 -9 -32 -31 -52 -48 -35 -30 -36 -33 -35 -100 l0 -69
56 113 c54 111 62 138 31 104z"/>
<path d="M11655 8461 l-30 -7 25 -7 c14 -4 45 -6 70 -5 44 1 44 1 7 5 -20 2
-35 8 -32 14 7 10 4 10 -40 0z"/>
<path d="M11880 8459 c73 -17 65 -24 -28 -22 -86 3 -87 2 -47 -12 38 -13 35
-13 -60 -8 -103 6 -118 1 -49 -17 31 -8 20 -9 -59 -5 -54 2 -103 7 -109 11 -6
4 -8 3 -4 -4 3 -5 23 -13 44 -17 20 -3 44 -10 52 -16 11 -7 9 -8 -10 -5 -14 3
-65 7 -115 10 l-90 5 53 -13 c29 -7 56 -16 59 -20 7 -6 -130 2 -154 9 -7 2
-15 1 -17 -4 -3 -4 0 -8 7 -9 7 0 26 -5 42 -11 26 -9 21 -10 -32 -7 -59 3 -82
-7 -48 -20 22 -9 18 -24 -5 -24 -12 0 -20 7 -21 18 0 9 -11 -6 -24 -33 l-23
-51 -73 -17 c-41 -9 -87 -18 -104 -19 -28 -3 -30 -1 -28 31 1 24 -2 30 -10 22
-5 -5 -10 -24 -10 -40 0 -24 -3 -27 -17 -19 -17 11 -100 -4 -620 -117 -485
-105 -781 -164 -797 -158 -9 4 -16 -3 -20 -17 -4 -16 -8 -18 -14 -9 -5 9 -12
-3 -20 -34 -6 -26 -15 -44 -20 -41 -5 3 -20 -7 -33 -23 -27 -31 -27 -59 -5
-183 l11 -65 -46 -88 c-33 -63 -44 -95 -40 -112 9 -38 10 -96 2 -101 -5 -3 -8
-13 -8 -23 0 -9 -12 -22 -27 -29 -16 -6 -19 -9 -8 -7 11 2 87 16 169 30 l149
26 116 -20 c64 -12 121 -21 126 -22 6 -1 -1 -4 -15 -9 -38 -11 -161 1 -192 18
-24 14 -37 15 -100 3 -40 -7 -113 -19 -163 -27 -53 -8 -100 -21 -115 -32 -23
-18 -25 -26 -28 -114 -2 -87 -5 -96 -25 -106 -12 -6 -16 -11 -9 -11 19 -1 32
-46 41 -143 10 -108 24 -128 89 -128 38 0 44 -3 40 -18 -3 -11 1 -30 8 -43 15
-27 18 -53 5 -45 -4 3 -11 19 -14 35 -4 18 -14 32 -27 36 -11 3 -20 11 -20 17
0 6 -3 9 -6 5 -7 -6 63 -154 77 -163 5 -3 6 10 4 28 -4 26 -3 29 4 13 19 -41
13 -55 -36 -76 -87 -37 -83 -25 -83 -266 0 -200 1 -214 20 -233 13 -13 33 -20
60 -20 45 0 45 0 55 -120 l5 -75 -32 -14 c-18 -8 -44 -23 -58 -35 l-25 -21 24
27 c13 15 33 30 43 34 19 6 19 6 1 27 -11 12 -37 62 -58 111 -28 65 -41 84
-45 70 -8 -23 5 -95 24 -132 17 -33 16 -60 -3 -72 -8 -4 -11 -12 -8 -17 3 -5
2 -15 -4 -23 -6 -11 -9 -8 -9 12 0 18 -8 31 -21 39 -19 10 -21 9 -17 -8 7 -28
-12 -49 -50 -55 -37 -5 -37 -5 -15 28 14 23 15 54 10 300 -4 151 -10 282 -15
291 -16 28 -135 60 -234 62 -30 1 -20 15 22 34 29 12 52 15 82 10 34 -5 38 -8
23 -14 -12 -5 2 -6 35 -4 86 5 85 1 83 316 -1 146 -7 278 -12 292 -6 14 -18
30 -28 35 -10 5 -76 12 -147 16 -92 5 -137 11 -157 23 -26 16 -36 15 -186 -13
-176 -32 -203 -46 -203 -106 0 -48 -12 -60 -46 -52 -16 3 -34 13 -40 20 -6 8
-38 18 -70 24 -32 5 -72 12 -89 15 -17 4 -95 -5 -175 -20 -163 -29 -173 -36
-184 -110 -7 -43 -9 -45 -39 -44 -18 0 -52 4 -77 8 l-45 8 37 2 c59 2 53 19
-9 26 -32 3 -66 10 -75 15 -26 14 -58 11 -207 -18 -116 -23 -136 -30 -153 -53
-18 -24 -20 -50 -24 -372 -6 -387 -9 -373 62 -314 21 19 46 36 54 40 8 3 10 6
4 6 -7 1 -10 14 -8 32 3 21 -5 43 -25 72 -45 67 -54 88 -36 81 8 -4 15 -10 15
-14 0 -5 16 -25 35 -46 19 -20 35 -41 35 -46 0 -5 4 -7 8 -4 7 4 33 -51 33
-71 0 -4 -20 -13 -44 -20 -76 -22 -78 -27 -87 -241 -9 -205 -8 -222 25 -267
12 -16 39 -63 61 -102 21 -40 41 -73 45 -73 4 0 12 15 19 33 6 17 16 39 21 47
5 8 17 32 27 52 9 21 24 39 32 42 8 2 2 4 -15 5 -22 2 -9 8 50 26 57 17 86 31
101 50 l22 27 38 -26 c22 -14 39 -30 39 -35 0 -11 95 -81 135 -100 20 -10 17
-6 -10 19 l-35 31 38 -21 c21 -11 42 -20 47 -20 15 0 12 63 -5 103 -8 19 -11
37 -8 41 4 3 30 6 59 6 66 0 209 27 253 47 31 15 36 15 69 -3 19 -10 52 -32
71 -48 58 -46 142 -97 154 -93 5 1 -5 13 -24 25 -42 27 -26 29 19 2 27 -17 44
-15 26 2 -3 4 -7 32 -8 63 -2 31 -8 61 -14 67 -25 25 -10 33 66 35 65 2 194
25 267 47 15 5 47 -13 120 -66 126 -90 157 -118 132 -118 -22 0 -22 -26 0 -34
15 -6 14 -8 -3 -24 -10 -9 -40 -27 -65 -40 -53 -25 -74 -46 -64 -62 5 -8 -4
-9 -29 -5 -24 5 -36 3 -37 -4 -1 -6 -3 -15 -4 -21 -1 -5 -3 -15 -4 -21 0 -5
-5 -8 -10 -4 -6 3 -15 -4 -21 -15 -6 -11 -8 -20 -4 -20 4 0 -5 -11 -20 -25
-16 -15 -25 -32 -22 -40 4 -11 -2 -15 -19 -15 -14 0 -25 -5 -25 -11 0 -6 7 -9
15 -5 9 3 15 0 15 -8 0 -8 -6 -16 -12 -19 -8 -3 -3 -9 12 -15 18 -8 20 -11 8
-11 -25 -1 -22 -16 5 -29 17 -8 18 -11 5 -11 -23 -1 -24 -39 -2 -48 10 -3 31
-1 48 5 30 11 30 10 9 -5 -26 -18 -30 -33 -8 -33 13 0 17 -6 14 -26 0 -4 5
-11 13 -15 10 -7 9 -9 -4 -9 -10 0 -18 -5 -18 -11 0 -5 5 -7 11 -4 6 4 13 -2
16 -14 7 -26 12 -26 29 -3 7 9 14 12 14 5 0 -6 -5 -15 -11 -18 -7 -5 -5 -15 5
-30 9 -13 13 -32 10 -42 -5 -15 -4 -16 5 -3 9 13 11 13 11 -3 0 -10 7 -20 15
-23 8 -4 15 -10 15 -16 0 -5 11 -19 25 -32 28 -26 33 -41 10 -32 -24 9 -18 -8
16 -42 26 -26 28 -32 13 -32 -17 0 -17 -1 1 -14 16 -12 17 -16 6 -30 -9 -11
-10 -16 -2 -16 18 0 13 -18 -6 -23 -13 -3 -10 -5 7 -6 22 -1 23 -3 7 -12 -22
-13 -13 -29 15 -29 12 0 19 -3 15 -6 -3 -4 5 -21 18 -39 14 -17 25 -39 25 -48
0 -21 17 -30 23 -13 9 22 45 7 56 -23 6 -16 10 -19 10 -9 1 9 5 19 10 22 4 3
6 -6 3 -19 -2 -15 0 -25 7 -25 6 0 11 -7 11 -15 0 -8 3 -15 8 -15 4 0 5 30 4
67 -5 83 4 81 11 -2 4 -53 9 -63 38 -87 22 -19 36 -25 43 -18 18 18 45 11 51
-12 11 -51 25 -143 25 -163 0 -17 -11 -26 -44 -39 -63 -24 -73 -51 -88 -251
-16 -218 -15 -233 22 -292 34 -55 43 -98 26 -127 -22 -39 -88 -96 -109 -95
-21 1 -21 2 -2 6 26 7 35 21 35 60 0 45 -16 50 -24 8 -4 -20 -13 -36 -21 -36
-8 -1 -21 -2 -27 -3 -7 -1 -12 6 -10 14 4 18 2 490 -3 552 -8 108 -19 113
-243 104 -217 -8 -374 -28 -409 -52 -24 -16 -46 -18 -168 -16 -146 3 -338 -10
-402 -27 -21 -6 -50 -22 -65 -36 -17 -15 -38 -25 -55 -24 l-28 1 30 7 c22 5 3
9 -68 15 -65 5 -103 4 -109 -2 -6 -6 -25 -8 -42 -5 -40 6 -265 -22 -300 -38
-14 -7 -30 -25 -35 -43 -9 -26 -51 -361 -51 -400 0 -7 14 -31 31 -52 16 -21
35 -57 42 -81 6 -23 15 -39 20 -36 5 3 4 -3 -1 -13 -19 -35 -77 -81 -103 -82
-23 -1 -26 2 -21 23 6 32 -6 95 -18 95 -6 0 -10 -7 -10 -15 0 -23 -15 -18 -27
8 -12 25 0 114 16 130 14 14 3 33 -40 76 -48 50 -56 89 -35 183 9 39 14 74 10
77 -3 3 -38 11 -77 16 -53 7 -72 14 -72 25 0 12 21 16 105 20 60 3 105 9 105
15 0 15 -101 23 -260 21 -130 -2 -135 -1 -65 8 41 5 77 12 80 16 10 15 77 24
148 21 55 -2 72 0 72 10 -1 21 -46 66 -149 149 l-93 75 6 50 c14 110 40 259
44 243 2 -10 5 -18 8 -18 14 0 84 34 84 41 0 5 9 9 21 9 11 0 18 4 15 9 -4 5
0 11 6 13 7 3 -13 8 -44 11 -31 4 -63 4 -71 1 -10 -3 -16 3 -19 20 -5 25 -4
26 51 25 31 0 78 -4 105 -8 82 -14 86 -26 101 -285 3 -49 7 -92 10 -94 3 -3 5
1 5 9 0 12 2 11 10 -1 9 -13 11 -13 20 0 6 10 10 11 10 3 0 -16 66 -17 76 -2
4 8 9 7 14 -2 7 -10 11 -10 24 0 8 7 24 10 35 6 10 -3 22 -1 26 5 3 5 14 10
23 10 9 0 30 7 46 15 15 8 38 15 49 15 11 0 40 9 63 21 38 18 43 24 39 47 -12
69 -11 151 1 156 7 3 15 0 17 -7 2 -7 3 -2 1 9 -2 12 9 43 24 69 15 25 32 55
38 66 6 11 15 20 20 20 5 0 9 12 9 27 0 20 5 27 20 27 14 0 20 6 19 23 -1 23
14 29 34 12 8 -7 9 -7 3 1 -10 12 11 60 34 79 8 7 15 21 15 31 0 10 5 21 10
24 8 5 7 11 -1 21 -11 13 -6 18 15 15 5 -1 6 5 3 13 -4 9 -1 18 5 22 7 4 6 9
-3 15 -11 7 -8 15 14 34 31 27 33 35 12 35 -8 0 -15 9 -15 20 0 11 7 20 15 20
13 0 12 4 -5 22 -23 25 -25 34 -7 42 6 3 -2 3 -20 0 -25 -4 -32 -1 -38 15 -6
20 -27 26 -83 23 -19 -1 -21 2 -12 19 11 20 -3 28 -15 8 -5 -6 -12 -4 -20 8
-11 15 -15 15 -29 4 -14 -11 -16 -11 -16 4 0 11 -5 15 -16 11 -8 -3 -12 -2 -9
4 7 12 -23 28 -72 38 -23 5 -38 14 -38 22 0 10 -8 14 -23 12 -16 -2 -20 1 -16
12 3 9 12 16 20 16 8 0 14 7 14 15 0 8 8 15 18 15 29 0 112 31 112 42 0 11
-64 5 -170 -17 -36 -7 -78 -11 -93 -8 -26 5 -38 -9 -18 -21 13 -8 -32 -95 -50
-96 -8 0 -38 -11 -65 -25 -54 -27 -90 -32 -97 -12 -3 6 -6 -5 -7 -25 -2 -21
-4 -42 -5 -48 -1 -5 -3 -16 -4 -23 0 -8 -9 -23 -19 -35 -14 -16 -22 -18 -30
-10 -8 8 -12 8 -12 2 0 -17 -43 -32 -65 -24 -11 4 -22 4 -25 0 -3 -4 -19 -5
-36 -3 -26 4 -31 9 -26 26 3 11 13 28 23 38 10 10 21 30 25 44 3 14 12 25 20
25 8 0 14 4 14 10 0 5 11 20 25 34 l25 25 -37 6 c-111 19 -114 24 -10 19 70
-3 107 -1 107 6 0 5 -17 10 -37 11 -21 0 -47 4 -58 9 -15 7 -10 9 23 9 24 1
52 6 63 12 18 9 16 12 -24 33 -23 13 -82 51 -130 85 -69 49 -87 67 -87 86 0
32 9 31 62 -3 99 -65 143 -91 146 -87 2 2 8 22 13 44 8 37 5 49 -26 114 l-35
72 10 85 c6 47 9 96 6 110 -2 14 -5 35 -5 47 -1 17 -11 25 -48 37 l-48 16 80
-4 c44 -3 71 -2 60 1 -17 5 -16 7 10 18 36 16 13 19 -35 5 -25 -8 -60 -7 -119
1 l-84 12 33 13 c39 17 80 18 130 3 24 -8 47 -8 65 -2 27 9 27 9 -41 53 -114
72 -209 133 -213 137 -2 2 -1 6 2 9 6 6 103 -52 199 -117 39 -27 41 -23 7 13
-19 22 -25 34 -17 37 51 15 61 69 28 146 -23 53 -25 111 -8 185 16 68 3 80
-88 87 -78 6 -98 17 -91 50 3 14 -1 23 -8 23 -7 0 -18 7 -25 15 -7 8 -18 15
-24 15 -8 0 -7 -3 1 -8 6 -4 14 -29 17 -55 5 -41 4 -46 -8 -35 -8 7 -12 16
-10 20 2 3 -1 8 -6 10 -6 2 -12 17 -14 33 -3 22 -9 29 -22 28 -48 -5 -743
-135 -772 -144 -35 -11 -52 -34 -52 -70 0 -21 -3 -21 -62 -15 -35 4 -86 12
-114 18 -41 8 -69 7 -135 -5 -46 -9 -102 -19 -124 -23 -55 -9 -82 -28 -90 -62
-6 -29 -7 -30 -58 -25 -29 2 -76 9 -105 14 -38 8 -72 8 -115 0 -34 -6 -91 -16
-127 -22 -72 -12 -100 -30 -100 -65 0 -13 -4 -26 -10 -29 -14 -8 -162 13 -174
25 -6 6 -14 10 -20 10 -6 0 -5 -5 2 -12 8 -8 11 -46 10 -118 -2 -98 -2 -100
-5 -25 -3 71 -6 82 -25 90 -25 11 -36 50 -12 41 9 -4 12 -2 8 5 -4 7 -21 9
-43 5 -20 -3 -67 -11 -106 -16 -78 -12 -115 -31 -115 -60 0 -16 -5 -19 -22
-16 -50 10 -139 17 -155 12 -17 -5 -18 -22 -15 -193 2 -193 -4 -231 -38 -241
-9 -2 -7 2 5 11 18 14 20 28 21 179 1 101 -1 144 -6 113 -4 -27 -8 -40 -8 -29
-1 12 -8 26 -15 32 -19 16 -55 3 -59 -20 -4 -26 -30 -43 -52 -35 -14 6 -17 19
-15 76 l2 70 37 -1 c32 0 37 -3 33 -19 -3 -11 0 -19 6 -19 6 0 11 4 11 9 0 4
12 7 28 4 23 -3 24 -2 7 6 -14 7 -16 10 -5 11 10 1 9 4 -5 10 -19 8 -19 8 5
18 36 16 18 14 -104 -8 -115 -21 -136 -31 -136 -62 0 -14 -5 -18 -17 -14 -10
2 -51 8 -90 11 l-73 7 0 -186 c0 -205 -9 -246 -53 -246 -16 0 -18 3 -9 9 8 4
13 11 13 15 -1 3 -1 18 -1 34 0 21 2 24 10 12 5 -8 10 -10 10 -4 0 6 -6 17
-14 23 -19 16 -28 51 -10 44 7 -2 10 -12 7 -21 -3 -11 2 -8 14 7 13 15 20 41
21 70 1 28 -1 41 -7 33 -4 -8 -7 -30 -5 -50 2 -23 0 -31 -6 -22 -4 7 -6 32 -4
55 6 47 -15 77 -39 56 -11 -8 -13 -4 -11 22 2 17 1 23 -2 12 -8 -26 -34 -55
-50 -55 -29 0 -41 28 -40 93 l1 66 -30 -6 c-47 -7 -73 -24 -79 -49 -5 -20 -9
-22 -38 -13 -18 5 -56 9 -85 9 l-52 0 -1 -180 c0 -99 -5 -191 -10 -205 -5 -14
-21 -30 -35 -35 -39 -15 -54 -11 -22 6 33 18 33 20 6 35 -15 8 -19 8 -15 0 8
-12 -4 -14 -28 -5 -9 3 -14 10 -11 14 3 5 -4 6 -16 3 -16 -5 -18 -8 -7 -15 9
-7 8 -8 -5 -4 -10 3 -22 6 -25 6 -4 0 -8 21 -9 48 -1 32 1 41 7 27 7 -17 8
-16 11 10 3 24 9 30 29 30 19 0 24 -4 21 -20 -3 -20 -3 -20 20 0 12 11 19 14
15 8 -4 -7 -2 -13 4 -13 20 0 40 28 40 57 0 40 -19 103 -31 103 -6 0 -8 3 -5
8 2 4 -2 15 -9 25 -13 18 -14 17 -20 -2 -3 -12 -3 -26 1 -32 4 -7 3 -9 -3 -6
-6 4 -15 -5 -21 -18 -16 -34 -36 -32 -29 3 3 15 9 35 12 45 5 12 2 17 -9 17
-9 0 -16 7 -16 16 0 8 -4 12 -10 9 -5 -3 -10 1 -10 9 0 10 9 16 23 17 12 0 31
4 42 9 29 13 -83 1 -118 -12 -16 -6 -32 -21 -37 -32 -7 -20 -13 -21 -85 -16
-42 3 -80 3 -83 0 -4 -3 -8 -84 -10 -180 -2 -96 -8 -187 -13 -201 -7 -18 -20
-29 -41 -33 -38 -8 -50 1 -14 10 15 3 26 13 26 23 0 13 -2 13 -9 2 -5 -7 -14
-10 -21 -6 -9 6 -9 9 1 15 9 6 9 12 -4 24 -8 9 -22 16 -31 16 -8 0 -17 8 -19
18 -4 16 -5 16 -6 0 0 -10 -6 -18 -12 -18 -15 0 -3 60 15 78 12 12 15 9 21
-17 7 -31 19 -40 29 -22 4 5 0 12 -6 15 -7 3 -1 4 13 1 26 -5 27 -3 27 46 0
27 -3 48 -5 45 -3 -3 -14 1 -25 8 -11 8 -29 11 -40 8 -24 -6 -50 22 -41 44 3
8 0 14 -7 14 -6 0 -9 -4 -5 -9 3 -5 0 -13 -6 -17 -8 -4 -9 -3 -5 4 4 7 3 12
-2 12 -5 0 -7 11 -4 25 2 14 -1 32 -8 40 -10 12 -9 15 5 15 10 0 16 3 12 6 -3
4 -22 3 -41 0 -29 -6 -37 -13 -48 -43 l-13 -35 -64 6 c-35 3 -70 11 -77 17
-12 10 -14 -10 -15 -127 -1 -132 -10 -248 -19 -257 -3 -3 -21 -7 -40 -11 -19
-3 -27 -3 -18 2 15 6 15 9 -3 30 -10 13 -23 21 -29 17 -5 -3 -10 2 -10 11 0
16 -1 16 -15 -2 -14 -18 -14 -18 -15 8 0 14 -5 28 -12 30 -7 3 -9 14 -4 32 6
24 11 27 31 22 14 -4 25 -2 25 4 0 5 5 10 11 10 7 0 9 -9 5 -24 -6 -26 17 -45
30 -24 4 6 3 8 -4 4 -6 -3 -13 -2 -16 3 -3 5 3 11 14 14 12 3 20 -1 23 -12 3
-9 5 -4 6 11 1 16 8 28 19 31 16 4 16 5 0 6 -10 0 -18 8 -18 16 0 8 6 13 13
11 6 -1 9 -1 5 1 -5 3 -8 13 -8 23 0 20 -26 35 -35 20 -4 -6 -11 -10 -17 -10
-7 0 -6 6 2 15 7 9 8 15 2 15 -5 0 -13 -7 -16 -16 -3 -9 -15 -14 -28 -12 -20
3 -23 10 -26 50 -1 32 3 51 14 62 21 22 54 21 55 -1 0 -12 2 -13 6 -5 3 7 -1
20 -8 28 -11 13 -26 15 -78 10 -80 -9 -74 3 10 18 60 11 94 36 49 36 -14 0
-19 4 -14 12 5 8 2 9 -10 5 -39 -15 -64 -18 -70 -8 -4 6 13 13 41 17 l47 7
-58 28 c-71 35 -74 37 -56 50 12 8 7 17 -30 50 l-45 39 74 -35 c40 -20 86 -39
101 -42 16 -3 41 -18 56 -34 34 -35 67 -37 99 -4 50 49 21 77 -68 68 -64 -7
-97 11 -97 52 0 19 11 25 76 43 l75 20 55 -24 c89 -39 102 -27 26 26 -26 19
-50 38 -54 44 -10 15 3 38 18 32 10 -4 16 7 20 35 4 22 17 56 30 75 29 42 30
68 5 114 -11 19 -26 46 -33 60 -12 23 -37 49 -48 50 -3 0 -4 -48 -2 -107 2
-60 1 -146 -3 -191 -7 -82 -8 -84 -38 -97 -39 -16 -113 -30 -82 -16 11 5 16
10 10 11 -5 0 -1 7 9 15 11 8 15 15 9 15 -10 0 2 58 25 113 17 40 15 64 -6 76
-16 10 -15 10 3 11 15 1 16 3 5 7 -8 4 -21 12 -28 20 -19 19 -39 16 -45 -7 -3
-11 -11 -20 -19 -20 -11 0 -14 13 -13 50 1 28 4 52 6 53 2 1 19 8 37 14 31 11
33 11 27 -10 -5 -22 -5 -22 6 1 7 12 17 22 23 22 6 0 4 5 -4 10 -13 8 -12 10
3 10 9 0 17 5 17 10 0 12 -7 12 -67 0 -26 -6 -63 -12 -82 -14 -39 -4 -51 -19
-51 -65 l0 -34 -62 7 c-34 4 -74 14 -90 22 -23 12 -36 13 -71 3 -23 -6 -63
-11 -88 -10 -59 1 -99 -27 -99 -70 0 -29 -1 -29 -55 -29 -34 0 -68 7 -92 19
-35 19 -42 19 -98 6 -33 -8 -72 -15 -87 -15 -29 0 -96 -56 -76 -62 6 -2 9 -12
5 -20 -5 -14 -16 -16 -64 -11 -32 3 -64 11 -71 16 -17 13 -55 20 -48 9 3 -5
-9 -9 -27 -9 -87 -1 -146 -16 -172 -43 -17 -18 -23 -30 -16 -34 6 -4 11 -38
11 -80 0 -39 4 -76 9 -81 6 -6 12 -45 14 -87 4 -74 3 -78 -17 -79 -52 -4 -81
0 -91 14 -12 17 -7 109 6 101 5 -3 9 6 9 20 0 32 -17 34 -22 4 -2 -19 -8 -23
-36 -20 -17 1 -32 -2 -32 -8 0 -5 7 -10 16 -10 8 0 13 -4 9 -10 -3 -5 -11 -7
-19 -4 -16 6 -18 -28 -2 -38 6 -4 19 -5 29 -2 13 4 17 -1 17 -25 0 -16 -5 -33
-10 -36 -6 -3 -10 -19 -10 -35 0 -44 -18 -46 -22 -3 l-3 38 -17 -35 -16 -35
-3 45 c-2 25 -3 62 -4 82 0 21 -3 38 -7 38 -27 1 -31 -2 -13 -10 19 -8 19 -9
-1 -9 -12 -1 -24 6 -28 14 -3 8 0 15 6 15 22 0 -14 27 -105 79 -49 28 -96 51
-105 51 -9 0 -37 9 -61 20 -24 11 -48 20 -55 19 -6 0 -2 -4 9 -9 17 -8 16 -9
-10 -9 -69 1 -142 -12 -165 -29 -24 -18 -25 -25 -33 -177 -5 -88 -5 -167 0
-177 4 -9 54 -58 111 -107 93 -82 105 -89 128 -81 14 6 27 10 30 10 2 0 4 -20
4 -45 l0 -45 -37 0 c-21 0 -50 -7 -65 -14 -16 -8 -28 -11 -28 -5 0 5 -16 9
-36 9 -19 0 -33 -4 -29 -9 3 -6 -8 -8 -28 -4 -21 3 -45 -1 -64 -11 -34 -17
-34 -20 -49 -261 l-5 -100 75 -86 75 -87 -43 -11 c-24 -6 -48 -17 -54 -24 -15
-17 -42 -228 -42 -322 l0 -75 76 -62 77 -63 -57 -10 c-39 -7 -64 -17 -75 -32
-21 -25 -38 -104 -56 -263 l-14 -114 71 -74 c72 -77 76 -91 20 -92 -15 0 -21
-4 -16 -12 5 -8 2 -9 -9 -5 -10 3 -17 2 -17 -4 0 -6 -5 -7 -10 -4 -11 7 -33
-42 -25 -55 3 -5 0 -10 -7 -12 -6 -2 -11 -18 -11 -36 0 -17 -4 -29 -9 -26 -4
3 -8 -1 -8 -8 -1 -7 -9 -62 -20 -123 l-18 -110 84 -79 c91 -84 93 -96 23 -96
-60 0 -84 -34 -104 -143 -9 -51 -23 -114 -31 -141 -26 -90 -20 -117 33 -168
79 -72 137 -108 179 -108 35 0 36 -1 31 -29 -4 -16 -4 -52 0 -79 l6 -50 41 18
c23 10 78 20 126 23 63 4 75 3 45 -4 -22 -5 -50 -11 -63 -14 -12 -3 -22 -10
-22 -16 0 -6 4 -8 8 -5 5 3 9 -1 9 -8 0 -8 -9 -11 -24 -8 -13 2 -23 0 -23 -5
0 -5 -13 -9 -30 -8 -16 1 -30 -2 -30 -6 0 -5 -11 -11 -25 -15 -14 -3 -25 -10
-25 -16 0 -5 -4 -6 -10 -3 -5 3 -10 2 -10 -3 0 -11 -30 -25 -38 -17 -3 3 3 15
14 27 15 18 15 20 2 9 -23 -18 -62 -80 -54 -88 3 -3 10 7 16 22 6 15 13 25 17
21 6 -5 -33 -96 -42 -96 -2 0 -1 10 2 22 4 20 3 21 -7 6 -6 -10 -26 -132 -45
-270 -40 -298 -60 -434 -166 -1153 -44 -297 -83 -561 -86 -587 -12 -94 33
-196 105 -235 l37 -21 5250 -14 c2888 -7 5615 -13 6060 -13 l810 0 66 32 c81
40 140 102 182 191 l32 67 -3 515 c-1 283 -4 560 -7 615 -2 55 -8 358 -11 673
-4 314 -11 572 -15 572 -5 0 -6 -89 -4 -197 13 -549 20 -1711 11 -1721 -4 -3
-6 80 -7 184 0 104 -2 243 -4 309 -2 66 -6 406 -9 755 -11 1139 -13 1172 -77
1286 -17 29 -29 61 -27 71 6 30 51 -24 79 -93 22 -55 24 -76 29 -319 l6 -260
2 196 c2 149 5 196 15 196 48 1 146 73 167 123 21 50 8 128 -30 192 -19 32
-36 55 -38 53 -3 -2 2 -15 10 -27 18 -28 50 -108 43 -108 -9 0 -63 116 -84
178 -12 34 -20 83 -19 109 l1 48 7 -50 c9 -56 2 184 -10 400 -7 115 -8 100 -4
-85 3 -124 7 -233 10 -242 3 -10 1 -18 -4 -18 -5 0 -12 73 -16 163 -3 89 -9
191 -11 227 -3 36 -12 205 -20 375 -9 171 -17 346 -20 390 -2 44 -7 136 -10
205 -3 69 -8 154 -10 190 -6 87 -22 393 -35 670 -5 124 -14 304 -20 400 -5 96
-12 234 -15 305 -3 72 -8 153 -10 180 -2 28 -7 115 -10 195 -3 80 -10 226 -15
325 -6 99 -17 331 -25 515 -8 184 -20 399 -26 478 -13 154 -22 177 -61 153
-17 -11 -22 -10 -29 1 -5 7 -9 8 -9 2 0 -10 -177 -54 -216 -54 -13 0 -15 8
-12 35 4 34 -4 46 -17 24 -5 -7 -11 -5 -18 5 -7 9 -36 17 -72 20 -59 5 -60 5
-15 -5z m-1413 -556 c-3 -10 -5 -4 -5 12 0 17 2 24 5 18 2 -7 2 -21 0 -30z
m-47 -4 c0 -10 -7 -19 -15 -19 -15 0 -21 31 -9 43 11 10 24 -3 24 -24z m27 12
c0 -11 -5 -17 -9 -15 -11 7 -10 34 1 34 6 0 9 -9 8 -19z m-116 -27 l-8 -29 -5
27 c-3 16 0 29 6 31 16 6 16 4 7 -29z m41 11 c3 -15 1 -25 -6 -25 -6 0 -12 11
-12 25 -2 32 12 32 18 0z m-72 -15 c0 -23 -26 -34 -34 -13 -7 18 12 46 25 37
5 -3 9 -13 9 -24z m526 18 c5 -7 9 -51 11 -99 1 -47 5 -93 8 -101 4 -9 5 -27
3 -39 -3 -22 -21 -27 -361 -95 -382 -76 -373 -76 -364 -17 4 27 4 27 6 -4 1
-36 6 -38 74 -27 34 6 37 9 39 43 l1 36 4 -34 c4 -31 6 -33 36 -27 18 4 49 9
69 12 34 6 36 8 27 31 -11 30 -11 33 1 33 6 0 10 -11 10 -25 0 -21 5 -25 28
-24 15 1 20 3 10 6 -14 4 -15 8 -6 29 14 30 34 31 57 3 14 -18 23 -20 62 -14
41 6 45 9 44 33 -2 20 -1 21 2 5 5 -27 4 -27 113 -6 83 15 86 17 84 42 -1 20
0 21 3 4 3 -16 11 -23 29 -23 18 0 24 5 24 23 0 36 -14 49 -46 42 -16 -3 -63
-12 -104 -19 -41 -8 -182 -35 -312 -61 -131 -26 -244 -45 -250 -42 -9 3 -13
32 -13 97 l0 92 335 68 c184 37 343 68 352 69 9 1 20 -5 24 -11z m-578 -45
c-13 -16 -38 -5 -38 18 0 27 18 24 23 -3 3 -19 5 -17 6 7 2 26 4 27 10 10 5
-11 4 -25 -1 -32z m-48 10 c0 -22 -2 -25 -10 -13 -13 20 -13 40 0 40 6 0 10
-12 10 -27z m-37 10 c-7 -2 -13 -11 -13 -18 0 -7 6 -16 13 -19 6 -3 2 -3 -10
0 -13 3 -23 2 -23 -3 0 -5 -9 -9 -21 -10 -15 -1 -20 3 -17 20 2 15 10 22 25
22 11 0 25 3 29 8 4 4 12 7 18 6 6 0 5 -3 -1 -6z m1641 -12 c15 -23 -28 -40
-182 -70 -89 -18 -167 -29 -173 -26 -5 4 -9 14 -7 23 2 12 40 24 158 48 170
35 196 38 204 25z m-1771 -171 c4 -30 6 -91 5 -135 l-3 -79 -60 -12 c-78 -17
-153 -27 -190 -28 l-30 -1 -5 124 c-3 67 -2 128 2 134 7 12 218 57 253 54 16
-2 21 -12 28 -57z m-481 -217 c3 -198 3 -222 -6 -212 -9 10 -16 419 -7 419 5
0 11 -85 13 -207z m1165 170 c-3 -10 -5 -4 -5 12 0 17 2 24 5 18 2 -7 2 -21 0
-30z m-57 -3 c0 -11 -2 -20 -4 -20 -2 0 -6 9 -9 20 -3 11 -1 20 4 20 5 0 9 -9
9 -20z m-143 -37 c-3 -10 -5 -4 -5 12 0 17 2 24 5 18 2 -7 2 -21 0 -30z m1375
-22 c81 -15 158 -35 172 -44 19 -13 26 -28 31 -71 4 -32 13 -57 21 -60 19 -7
18 -36 -2 -36 -14 0 -15 -8 -9 -47 4 -27 11 -49 16 -51 14 -5 11 -80 -3 -85
-10 -4 -10 -8 1 -15 7 -5 9 -12 4 -15 -5 -4 -8 -50 -5 -106 2 -54 0 -106 -5
-115 -9 -17 -1 -23 -229 151 l-60 46 -13 201 c-16 263 -25 278 -150 251 -39
-8 -121 -23 -182 -34 -67 -12 -120 -27 -133 -38 l-21 -17 20 22 c16 17 55 29
185 56 91 18 176 34 190 35 14 0 91 -12 172 -28z m-1575 -18 c-3 -10 -5 -4 -5
12 0 17 2 24 5 18 2 -7 2 -21 0 -30z m-130 -13 c1 -11 -2 -20 -8 -20 -5 0 -9
9 -9 20 0 11 4 20 8 20 4 0 8 -9 9 -20z m953 -97 c119 -25 170 -43 122 -43
-52 0 -180 23 -208 37 -29 15 -39 15 -140 -5 -60 -12 -131 -24 -159 -28 -27
-3 -66 -13 -85 -21 -32 -12 -33 -12 -20 1 9 10 86 30 185 50 94 18 172 34 175
35 3 0 61 -11 130 -26z m-674 -133 c54 -11 100 -23 103 -26 13 -13 -185 9
-206 24 -15 9 -35 13 -56 9 -194 -33 -314 -60 -332 -75 -12 -9 -9 -5 5 9 22
21 45 28 136 43 60 9 123 20 139 25 49 15 107 12 211 -9z m-276 -172 c-33 -78
-50 -103 -50 -75 0 15 20 64 59 146 30 65 23 5 -9 -71z m-570 -60 c0 -28 -3
-38 -9 -29 -7 11 -11 10 -20 -5 -10 -18 -10 -18 -11 1 -1 18 -2 18 -10 -2 -14
-35 -20 -28 -20 22 0 47 14 60 25 25 8 -24 25 -17 25 11 0 10 5 19 10 19 6 0
10 -19 10 -42z m-81 -25 c1 -6 -6 -19 -15 -28 -22 -22 -44 -2 -43 39 l1 31 9
-32 c13 -44 29 -42 30 5 0 30 2 33 9 17 5 -11 9 -25 9 -32z m-75 -5 c7 -46 -8
-58 -28 -21 l-15 28 -1 -27 c0 -16 -4 -28 -10 -28 -5 0 -10 18 -10 40 0 45 20
54 38 18 10 -22 11 -22 11 6 1 38 8 31 15 -16z m171 -38 c-3 -10 -1 -28 5 -40
12 -22 1 -27 -18 -8 -9 9 -12 8 -13 -7 -1 -11 -5 -2 -9 20 -8 42 -4 58 9 36 7
-10 10 -9 14 3 9 23 20 20 12 -4z m-59 -12 c5 -8 2 -9 -10 -5 -19 8 -32 -14
-22 -39 5 -14 9 -14 23 -3 14 12 16 12 11 -1 -6 -20 -38 -25 -49 -8 -13 20
-11 35 7 52 18 19 30 20 40 4z m-66 -43 c0 -32 -25 -51 -45 -35 -20 17 -19 57
2 69 23 12 43 -4 43 -34z m-100 -5 c0 -22 5 -30 18 -30 16 -1 16 -1 -1 -11 -9
-5 -22 -7 -27 -4 -13 8 -13 75 0 75 6 0 10 -13 10 -30z m-603 -2 c-4 -12 -1
-28 5 -35 24 -30 -20 -88 -52 -68 -17 10 -11 35 8 32 9 -1 18 3 20 8 1 6 -2
10 -7 10 -18 0 -24 15 -11 30 11 13 10 14 -4 9 -10 -4 -16 -1 -16 9 0 13 12
19 54 26 4 0 6 -9 3 -21z m-72 -58 c0 -34 -5 -55 -12 -57 -7 -3 -14 4 -14 14
-1 16 -2 16 -6 1 -2 -10 -11 -18 -18 -18 -8 0 -19 8 -24 18 -9 15 -10 15 -11
-5 0 -14 -6 -23 -15 -23 -13 0 -15 11 -13 57 3 65 23 82 39 34 10 -29 29 -43
29 -22 0 5 5 22 10 36 16 43 35 25 35 -35z m-530 -60 c4 -13 0 -31 -9 -45 -15
-22 -15 -25 -1 -25 8 0 15 -7 15 -15 0 -8 -9 -15 -19 -15 -11 0 -26 -3 -35 -6
-23 -9 -20 21 6 56 12 16 18 33 13 37 -4 5 -10 2 -12 -4 -6 -17 -23 -17 -23 0
0 36 54 50 65 17z m-77 -53 c2 -46 0 -57 -13 -57 -8 0 -15 8 -16 18 0 13 -2
12 -9 -5 -5 -13 -13 -23 -19 -23 -5 0 -12 10 -16 23 -8 21 -8 21 -12 -5 -7
-47 -23 -31 -23 22 0 28 -1 53 -2 58 -1 4 6 8 15 10 11 2 21 -7 28 -25 l11
-28 15 38 c21 52 37 42 41 -26z m742 17 c0 -7 -9 -18 -20 -24 -11 -6 -20 -17
-20 -25 0 -8 -4 -15 -10 -15 -5 0 -10 20 -10 44 0 34 4 45 18 48 20 5 42 -9
42 -28z m350 -32 c0 -59 -3 -69 -17 -69 -31 0 -43 18 -43 63 0 44 19 74 46 74
11 0 14 -16 14 -68z m-420 19 c0 -42 -9 -61 -30 -61 -10 0 -21 7 -24 16 -9 25
-7 64 4 64 6 0 10 -13 10 -30 0 -16 5 -30 10 -30 6 0 10 16 10 35 0 19 5 35
10 35 6 0 10 -13 10 -29z m3189 10 c66 -7 88 -14 105 -31 l21 -22 -30 6 c-28
6 -29 5 -11 -9 11 -8 23 -15 26 -15 13 0 30 -120 35 -245 3 -71 8 -159 10
-195 3 -36 7 -90 10 -119 2 -30 7 -183 10 -340 3 -158 8 -311 11 -342 2 -31 2
-63 -2 -72 -6 -17 -34 -24 -34 -9 0 4 -15 16 -32 26 -18 10 -65 43 -104 72
-39 30 -76 54 -83 54 -8 0 -11 39 -11 128 0 70 -5 237 -10 372 -5 135 -12 346
-16 470 -4 160 -10 233 -20 254 -18 38 -18 38 14 32 15 -3 65 -10 111 -15z
m-3289 -16 c11 -13 9 -15 -11 -13 -18 2 -24 -2 -24 -16 0 -11 6 -20 13 -22 7
-1 8 0 2 3 -17 8 -11 23 10 23 28 0 26 -37 -2 -45 -15 -5 -26 -1 -37 13 -14
18 -19 19 -33 8 -10 -7 -18 -18 -18 -25 0 -6 -4 -11 -10 -11 -5 0 -10 20 -10
45 0 41 2 45 24 45 14 0 28 -5 31 -10 4 -6 12 -4 21 5 19 19 28 19 44 0z
m-1098 -52 c5 -27 -3 -103 -12 -103 -4 0 -13 21 -19 46 -9 35 -9 49 0 60 15
19 27 18 31 -3z m-52 -59 c0 -42 -3 -54 -16 -54 -8 0 -13 4 -9 9 3 5 1 12 -5
16 -5 3 -10 -3 -10 -14 0 -25 -30 -28 -31 -3 -1 16 -2 16 -6 0 -2 -10 -11 -18
-19 -18 -10 0 -14 14 -14 55 0 63 19 75 44 28 l14 -28 8 30 c7 31 22 47 36 39
4 -3 8 -30 8 -60z m687 32 c-14 -11 -15 -15 -5 -20 10 -5 10 -7 1 -12 -18 -8
-16 -25 2 -18 18 7 19 0 3 -25 -9 -15 -14 -16 -24 -7 -6 7 -14 21 -17 32 -3
14 -5 12 -6 -8 -1 -23 -5 -27 -23 -24 -13 2 -29 -1 -35 -6 -10 -8 -13 -1 -13
31 0 44 6 50 25 24 11 -14 13 -13 19 10 7 31 22 35 29 10 4 -14 5 -12 6 5 1
17 7 22 29 22 25 -1 26 -2 9 -14z m-137 -31 c7 -8 10 -25 6 -39 -8 -32 -37
-42 -53 -20 -12 16 -13 17 -13 1 0 -22 -16 -22 -25 1 -6 15 -8 14 -18 -8 -10
-25 -10 -25 -14 -3 -3 13 -3 35 -1 50 l4 28 12 -25 11 -25 7 23 c3 12 11 22
16 22 6 0 8 -10 5 -22 -5 -21 -4 -20 14 5 24 31 32 33 49 12z m2680 -10 c0
-12 -19 -12 -23 0 -4 9 -1 12 9 8 7 -3 14 -7 14 -8z m-673 -105 c25 0 13 -15
-22 -26 -35 -11 -48 -2 -20 14 14 7 14 12 0 45 -22 53 -17 59 8 10 11 -24 27
-43 34 -43z m-1221 22 c-17 -16 -18 -16 -5 5 7 12 15 20 18 17 3 -2 -3 -12
-13 -22z m-1289 -25 c3 -28 -1 -37 -17 -42 -11 -3 -24 -4 -29 -1 -5 4 -11 0
-14 -6 -3 -10 -7 -10 -20 1 -11 9 -17 10 -17 2 0 -6 -4 -11 -10 -11 -5 0 -10
18 -10 40 0 44 6 49 26 23 12 -17 13 -16 14 6 0 15 5 21 13 18 8 -3 20 -1 28
4 23 14 34 5 36 -34z m2986 26 c-13 -2 -33 -2 -45 0 -13 2 -3 4 22 4 25 0 35
-2 23 -4z m-3113 -53 c0 -22 -4 -40 -10 -40 -5 0 -10 18 -10 40 0 22 5 40 10
40 6 0 10 -18 10 -40z m-1000 -35 c-16 -20 5 -20 85 0 76 18 95 18 95 1 0 -18
-12 -22 -109 -37 -56 -9 -78 -16 -71 -23 14 -14 12 -36 -3 -36 -8 0 -24 11
-37 25 -21 23 -22 26 -7 48 26 39 51 61 55 48 2 -6 -2 -18 -8 -26z m2135 -70
c37 -54 59 -68 67 -43 6 17 28 -6 46 -45 13 -31 16 -29 -58 -47 -72 -17 -89
-30 -101 -73 -7 -28 -14 -37 -25 -33 -9 3 -21 6 -27 7 -7 0 -3 4 8 8 13 5 -2
10 -48 14 -96 9 -108 18 -63 47 37 22 56 23 129 5 27 -7 27 -7 12 21 -13 26
-20 54 -12 54 1 0 17 -4 35 -9 29 -9 33 -7 38 14 3 13 -2 37 -12 56 -54 100
-49 111 11 24z m1360 50 c-42 -14 -123 -20 -111 -8 8 8 79 20 121 21 28 0 28
-1 -10 -13z m235 0 c7 -9 10 -27 7 -45 -4 -16 -2 -32 3 -35 17 -10 11 -44 -10
-65 -36 -36 -92 -19 -90 27 3 87 7 106 25 119 25 18 49 18 65 -1z m-8038 -185
c-1 -91 -5 -175 -8 -188 -5 -24 -39 -43 -61 -35 -18 7 -6 22 15 18 9 -1 12 0
5 2 -17 6 -10 80 11 125 10 21 19 49 20 63 0 14 3 25 6 25 8 0 4 109 -4 117
-3 3 -6 -1 -6 -10 0 -9 -6 -16 -12 -14 -7 1 -12 -4 -10 -10 1 -7 -2 -13 -8
-13 -5 0 -10 12 -10 26 0 19 4 25 15 20 9 -3 15 0 15 9 0 9 6 12 18 8 14 -5
13 -3 -3 11 l-20 17 20 -3 c19 -3 20 -10 17 -168z m3704 129 c2 -31 1 -31 -3
-4 -3 16 -10 34 -16 38 -8 6 -7 7 3 4 9 -2 16 -17 16 -38z m2522 -21 c68 -46
91 -67 57 -55 -30 12 -155 99 -155 108 0 12 3 10 98 -53z m832 12 c0 -17 -16
-11 -41 16 l-24 27 33 -17 c17 -9 32 -21 32 -26z m-7081 -62 c0 -27 -2 -29 -8
-13 -5 11 -6 26 -4 33 8 21 13 13 12 -20z m7421 24 c0 -24 -71 -167 -84 -170
-22 -5 -20 7 13 81 l29 65 -39 -5 c-31 -5 -39 -2 -39 10 0 9 10 18 23 20 41 8
97 7 97 -1z m-3810 -31 c0 -23 -5 -30 -26 -35 -34 -9 -44 2 -20 20 17 12 18
14 3 14 -22 0 -22 17 1 23 36 10 42 7 42 -22z m2281 -64 c9 -16 11 -16 27 -1
15 16 18 14 44 -17 15 -18 28 -39 28 -45 0 -7 -25 -17 -57 -24 -76 -14 -102
-26 -109 -47 -3 -10 -10 -29 -16 -43 -9 -22 -11 -23 -19 -7 -6 10 -22 17 -42
17 -42 0 -116 21 -97 28 8 3 28 14 43 24 25 18 34 19 72 9 24 -6 46 -11 49
-11 2 0 0 15 -5 32 -5 18 -9 35 -9 37 0 2 15 0 34 -3 47 -9 51 14 14 80 -15
28 -28 54 -28 59 0 9 57 -61 71 -88z m-2683 31 c-1 -47 -2 -48 -5 -13 -2 22
-11 46 -20 53 -15 11 -15 12 5 12 20 0 22 -5 20 -52z m-3228 35 c0 -5 -5 -15
-10 -23 -8 -12 -10 -11 -10 8 0 12 5 22 10 22 6 0 10 -3 10 -7z m6747 -133 c3
-49 -4 -77 -23 -84 -25 -10 -44 13 -44 52 0 69 62 99 67 32z m-4120 -49 c-7
-68 -52 -92 -71 -39 -13 38 1 93 27 106 33 15 50 -11 44 -67z m4041 12 c-2
-34 -8 -58 -15 -61 -8 -2 -13 6 -14 20 l0 23 -9 -22 c-11 -27 -28 -30 -37 -6
-5 14 -8 13 -14 -5 -15 -41 -29 -23 -29 38 0 53 2 60 19 60 13 0 21 -9 26 -30
6 -27 25 -43 25 -21 0 25 21 61 35 61 13 0 15 -11 13 -57z m-3548 22 c0 -8 -9
-16 -20 -16 -11 -1 -25 -2 -32 -3 -22 -2 -19 23 4 27 42 8 48 7 48 -8z m-3483
-47 c-3 -7 -5 -2 -5 12 0 14 2 19 5 13 2 -7 2 -19 0 -25z m3973 11 c0 -5 4 -8
9 -4 17 10 22 -13 6 -28 -8 -9 -15 -20 -15 -26 0 -6 -4 -11 -10 -11 -5 0 -10
6 -10 14 0 8 -5 16 -11 18 -8 3 -8 10 2 26 15 23 29 29 29 11z m2525 -19 c3
-6 -4 -14 -17 -19 -16 -7 -18 -10 -6 -10 25 -1 32 -38 13 -67 -18 -28 -48 -29
-53 -1 -3 13 2 17 14 15 9 -2 19 3 22 11 3 9 -1 11 -17 6 -19 -6 -21 -2 -21
28 0 20 6 38 13 40 21 9 46 7 52 -3z m969 -16 c8 -20 8 -88 0 -109 -11 -28
-44 12 -44 52 0 56 30 95 44 57z m-1054 -55 c0 -44 -3 -59 -12 -56 -7 2 -12
13 -11 23 2 16 1 15 -9 -3 -13 -26 -38 -31 -38 -8 0 8 -4 15 -9 15 -5 0 -8 -7
-7 -16 0 -9 -5 -19 -11 -21 -10 -3 -13 12 -13 56 0 53 3 61 19 61 12 0 21 -11
28 -32 l10 -33 16 38 c24 55 37 46 37 -24z m-6440 31 c0 -5 -5 -10 -11 -10 -5
0 -7 5 -4 10 3 6 8 10 11 10 2 0 4 -4 4 -10z m7180 -29 c0 -38 -19 -68 -28
-42 -3 8 -8 6 -18 -6 -13 -17 -13 -17 -14 2 0 18 -1 18 -16 -3 -25 -36 -44
-28 -44 18 0 47 24 65 46 35 13 -18 14 -18 14 3 0 25 10 28 28 10 9 -9 12 -8
12 5 0 9 5 17 10 17 6 0 10 -18 10 -39z m-7558 -20 c8 11 9 10 4 -4 -3 -10 -6
-41 -6 -68 0 -40 -4 -51 -22 -63 -31 -18 -98 -30 -98 -16 0 5 6 10 14 10 9 0
12 7 9 20 -3 13 0 20 8 20 11 0 11 2 -1 10 -12 8 -12 10 3 16 9 3 17 16 17 28
0 17 2 18 10 6 7 -11 10 -5 11 25 0 30 2 35 8 20 8 -19 9 -19 17 5 l8 25 4
-24 c3 -19 6 -21 14 -10z m387 7 c18 -11 18 -48 0 -48 -5 0 -6 8 -2 18 3 9 3
14 -2 10 -10 -10 -37 11 -29 23 7 12 11 11 33 -3z m3528 -5 c4 -11 -30 -22
-89 -26 -43 -3 -33 17 14 30 51 13 70 12 75 -4z m3411 -10 c2 -14 -4 -23 -17
-28 -12 -3 -21 -13 -21 -21 0 -8 -4 -14 -10 -14 -5 0 -10 18 -10 39 0 29 5 41
18 44 27 7 37 2 40 -20z m72 -14 c0 -38 -1 -40 -27 -37 -47 5 -45 78 2 78 23
0 25 -4 25 -41z m-2585 -39 c66 -96 81 -105 147 -85 28 8 66 15 84 15 l33 0
-24 -25 c-14 -13 -25 -29 -25 -36 0 -8 -23 -9 -81 -4 -45 4 -100 7 -122 7
l-40 -1 27 28 c14 15 26 30 26 33 0 4 -20 36 -45 72 -25 36 -41 66 -37 66 5 0
30 -31 57 -70z m1495 6 c0 -50 -18 -87 -28 -58 -2 7 -12 12 -23 12 -25 0 -24
13 3 61 31 56 48 51 48 -15z m-5942 26 c6 -18 -15 -14 -22 4 -4 10 -1 14 6 12
6 -2 14 -10 16 -16z m5862 -46 c0 -30 -4 -58 -10 -61 -5 -3 -10 2 -10 12 -1
17 -2 16 -16 -2 -14 -19 -16 -19 -28 -2 -13 16 -14 16 -19 -4 -13 -51 -28 25
-18 94 3 20 30 3 36 -23 8 -36 21 -31 30 10 4 17 13 30 21 30 10 0 14 -14 14
-54z m-5880 24 c0 -4 -7 -11 -16 -14 -13 -5 -14 -4 -6 7 7 8 8 18 4 22 -4 5
-1 5 6 1 6 -4 12 -11 12 -16z m3020 1 c14 -28 12 -84 -4 -107 -19 -25 -31 -12
-16 16 12 22 10 58 -5 93 -10 24 12 22 25 -2z m115 -122 c-8 -19 -12 -25 -9
-14 4 11 10 49 13 85 l6 65 3 -51 c2 -32 -3 -65 -13 -85z m1710 101 c23 -26
14 -46 -25 -54 -52 -10 -63 4 -34 42 30 37 35 39 59 12z m508 3 c-7 -2 -19 -2
-25 0 -7 3 -2 5 12 5 14 0 19 -2 13 -5z m1195 -23 c3 -36 -9 -50 -51 -55 -27
-4 -39 0 -47 13 -10 16 -10 16 -8 -2 3 -15 -5 -19 -40 -23 l-43 -4 3 38 c3 34
6 38 33 41 28 2 29 1 12 -12 -14 -10 -15 -15 -5 -19 10 -4 10 -8 -2 -16 -13
-9 -13 -11 3 -11 9 0 18 5 18 10 1 6 3 15 4 20 1 6 3 17 4 27 1 15 3 14 21 -2
19 -17 20 -17 20 1 0 14 2 16 9 6 7 -11 9 -10 15 3 10 26 50 15 54 -15z
m-2604 -69 c50 -73 97 -107 127 -90 50 26 105 41 121 33 4 -3 -4 -15 -18 -29
-13 -13 -24 -28 -24 -33 0 -6 -47 -8 -112 -6 -91 2 -112 6 -114 19 -1 8 1 15
5 15 4 0 16 6 26 14 18 13 17 17 -32 84 -29 39 -46 69 -39 66 7 -3 34 -36 60
-73z m5155 24 c6 -3 8 -11 5 -17 -8 -12 -33 29 -33 52 0 9 4 6 9 -6 5 -12 13
-25 19 -29z m-6559 11 c0 -3 -4 -16 -9 -30 -6 -15 -6 -37 -1 -57 11 -37 4 -55
-14 -40 -7 6 -15 9 -17 6 -8 -7 6 99 14 113 8 11 27 17 27 8z m-2255 -16 c3
-5 14 -10 24 -10 24 0 42 -22 32 -38 -6 -9 -18 -3 -46 23 -22 19 -34 35 -28
35 7 0 15 -4 18 -10z m4031 -35 c9 -14 14 -28 11 -31 -3 -3 -30 -8 -61 -11
l-56 -6 33 37 c38 43 51 45 73 11z m704 -16 c12 -23 18 -48 15 -57 -5 -13 -13
-5 -31 31 -21 41 -24 67 -9 67 3 0 14 -18 25 -41z m916 -19 c9 0 14 -6 12 -12
-6 -16 -89 -31 -102 -18 -5 5 -15 3 -24 -6 -22 -22 -37 -11 -37 27 0 32 2 34
33 33 17 -1 32 2 32 6 0 4 9 10 20 13 22 6 28 -8 8 -16 -10 -4 -9 -8 2 -16 10
-7 11 -11 3 -11 -7 0 -13 -4 -13 -8 0 -5 7 -9 15 -9 10 0 15 11 15 32 0 42 14
55 18 16 2 -20 9 -31 18 -31z m2470 10 c9 -22 20 -38 24 -35 5 3 11 1 15 -5 3
-5 4 -10 1 -10 -2 0 -11 -2 -19 -6 -14 -5 -26 16 -42 74 -11 37 4 25 21 -18z
m-9540 21 c-3 -4 -1 -22 3 -39 6 -20 5 -34 -2 -41 -8 -8 -7 -11 2 -11 11 0 11
-3 1 -15 -15 -18 -45 -21 -34 -3 5 8 2 9 -10 5 -9 -4 -15 -3 -11 2 3 5 -1 12
-7 15 -7 3 -4 4 7 1 19 -5 21 -1 17 32 -3 27 0 40 14 50 21 15 27 17 20 4z
m4578 -78 c71 -91 86 -100 135 -80 20 9 48 18 63 21 l27 6 -21 -32 c-22 -33
-22 -33 -98 -30 -97 4 -120 9 -120 28 0 8 4 13 9 10 5 -3 14 0 20 8 9 10 0 27
-39 77 -27 35 -50 68 -50 74 0 11 2 9 74 -82z m3766 47 c-8 -5 -19 -10 -25
-10 -5 0 -3 5 5 10 8 5 20 10 25 10 6 0 3 -5 -5 -10z m1665 0 c-28 -12 -45
-12 -45 0 0 6 15 10 33 9 27 0 29 -2 12 -9z m-6791 -26 c12 -30 -18 -60 -48
-48 -16 6 -13 38 4 59 13 16 36 10 44 -11z m6312 -23 c-4 -6 -16 -11 -26 -11
-17 0 -18 3 -8 25 10 22 13 24 26 11 8 -8 11 -19 8 -25z m-4596 -12 c15 -27
13 -28 -46 -34 -27 -2 -44 -1 -38 3 6 4 16 17 23 30 15 28 47 29 61 1z m-855
-64 c33 -41 65 -75 71 -75 7 0 14 -4 16 -8 5 -15 186 42 212 67 27 25 60 22
70 -6 9 -24 -11 -33 -75 -33 -45 0 -61 -5 -81 -23 -14 -13 -27 -29 -29 -35 -6
-18 -179 -4 -186 15 -3 8 3 20 13 27 17 13 16 17 -22 62 -62 77 -67 84 -57 84
5 0 36 -34 68 -75z m1405 6 c0 -40 -5 -73 -11 -77 -20 -12 -27 11 -19 61 4 28
4 51 -1 53 -13 5 1 32 17 32 11 0 14 -17 14 -69z m-3855 38 c27 -1 61 -5 75
-9 25 -9 -81 -4 -127 6 -12 2 -25 0 -28 -6 -3 -5 -1 -10 5 -10 18 0 7 -44 -12
-48 -10 -2 -18 1 -18 7 0 6 7 11 16 11 18 0 14 24 -4 26 -7 1 -17 2 -23 3 -5
0 -7 6 -3 12 4 8 9 7 15 -2 8 -13 10 -10 8 7 -2 13 26 23 35 14 6 -6 33 -10
61 -11z m95 11 c0 -5 -7 -10 -16 -10 -8 0 -12 5 -9 10 3 6 10 10 16 10 5 0 9
-4 9 -10z m7730 -4 c0 -10 -112 -36 -152 -35 -64 1 -35 9 145 38 4 0 7 -1 7
-3z m-7963 -12 c-3 -3 -12 -4 -19 -1 -8 3 -5 6 6 6 11 1 17 -2 13 -5z m-44
-11 c-7 -2 -21 -2 -30 0 -10 3 -4 5 12 5 17 0 24 -2 18 -5z m8217 -18 c0 -8
-9 -15 -21 -15 -29 0 -59 -18 -59 -36 0 -12 4 -12 20 -4 52 28 87 -60 38 -94
-28 -20 -62 -20 -78 -1 -17 21 -4 32 20 17 28 -17 50 -5 50 29 0 32 -17 37
-50 17 -26 -17 -29 -11 -23 44 5 45 7 47 42 51 20 2 42 4 49 5 6 1 12 -5 12
-13z m-195 -13 c-3 -3 -11 0 -18 7 -9 10 -8 11 6 5 10 -3 15 -9 12 -12z m-810
-1 c3 -5 1 -12 -4 -15 -5 -3 -11 1 -15 9 -6 16 9 21 19 6z m-7735 -21 c14 -14
31 -20 55 -18 55 3 51 -9 -5 -16 -30 -4 -53 -13 -57 -21 -7 -19 -138 -21 -149
-3 -4 7 -3 8 5 4 12 -8 44 18 34 28 -4 3 1 6 11 6 9 0 15 4 11 10 -3 5 9 14
27 19 46 13 46 13 68 -9z m2683 -61 c54 -64 62 -69 98 -69 22 0 58 9 79 20 22
11 40 17 40 13 0 -5 4 -3 8 2 11 15 71 45 92 45 10 0 28 -9 41 -20 21 -17 22
-21 9 -30 -8 -5 -33 -10 -55 -10 -62 0 -113 -18 -132 -47 -16 -25 -19 -25
-100 -20 -45 3 -87 9 -93 12 -17 10 -11 33 10 40 11 3 20 9 20 13 0 4 -23 33
-50 65 -28 32 -50 60 -50 62 0 14 33 -16 83 -76z m1347 46 c-9 -10 -11 -31 -7
-65 5 -45 4 -50 -13 -50 -18 0 -19 6 -13 68 6 66 19 90 37 72 6 -6 4 -15 -4
-25z m-3796 16 c3 -5 -3 -11 -15 -14 -16 -4 -18 -3 -8 9 13 16 16 17 23 5z
m4992 -28 c-3 -21 -6 -53 -6 -70 0 -18 -4 -33 -10 -33 -6 0 -10 30 -10 70 0
58 3 70 16 70 14 0 15 -7 10 -37z m-4913 10 c-13 -2 -33 -2 -45 0 -13 2 -3 4
22 4 25 0 35 -2 23 -4z m7517 -53 c-8 -6 -24 -9 -35 -9 l-20 1 20 5 c11 3 24
9 29 14 5 5 12 6 15 3 3 -3 -1 -9 -9 -14z m242 -62 c-3 -76 -11 -97 -34 -98
-5 0 -8 12 -8 28 0 26 -2 27 -39 24 -36 -4 -39 -2 -34 17 8 30 82 111 101 111
15 0 17 -11 14 -82z m-8238 63 c9 -14 -6 -21 -21 -9 -11 8 -12 7 -7 -6 4 -12
2 -15 -9 -10 -8 3 -38 1 -66 -4 -28 -5 -54 -6 -56 -1 -3 4 16 11 42 15 27 4
57 10 68 15 27 11 43 11 49 0z m3803 -88 c-2 -21 -4 -6 -4 32 0 39 2 55 4 38
2 -18 2 -50 0 -70z m-1757 77 c-8 -5 -19 -10 -25 -10 -5 0 -3 5 5 10 8 5 20
10 25 10 6 0 3 -5 -5 -10z m302 -19 c14 -15 34 -41 44 -56 30 -46 69 -65 112
-53 45 12 130 51 157 71 18 14 23 13 57 -4 62 -32 51 -42 -57 -54 -65 -8 -115
-31 -115 -54 0 -11 -14 -13 -78 -8 -42 3 -84 8 -93 12 -16 6 -22 34 -7 36 4 1
12 2 17 3 23 3 19 16 -17 57 -57 66 -65 79 -55 79 5 0 21 -13 35 -29z m1306
20 c8 -5 12 -23 10 -47 -3 -35 -6 -39 -40 -47 -33 -8 -38 -13 -38 -38 0 -19
-5 -29 -14 -29 -21 0 -23 8 -17 85 l6 70 35 6 c19 4 37 7 40 8 3 0 11 -3 18
-8z m-3568 -9 c0 -5 -16 -8 -35 -8 -19 1 -35 4 -35 8 0 5 16 8 35 8 19 0 35
-4 35 -8z m3230 -2 c0 -5 -7 -10 -16 -10 -8 0 -12 5 -9 10 3 6 10 10 16 10 5
0 9 -4 9 -10z m-3493 -16 c-3 -3 -12 -4 -19 -1 -8 3 -5 6 6 6 11 1 17 -2 13
-5z m4894 -21 c3 -51 -3 -98 -14 -111 -17 -21 -27 0 -18 38 4 19 4 47 0 62 -7
29 -3 38 18 38 7 0 14 -12 14 -27z m-5256 -13 c28 -5 107 -6 176 -2 l125 7 -4
-24 c-5 -23 -7 -24 -78 -18 -43 3 -74 2 -74 -4 0 -5 -7 -9 -15 -9 -8 0 -15 -5
-15 -11 0 -6 -6 -9 -12 -6 -7 2 -12 12 -10 22 3 16 -3 17 -65 11 -43 -4 -78
-14 -95 -26 -15 -11 -37 -20 -48 -20 -19 0 -21 4 -16 38 3 20 5 38 6 40 1 8
47 20 60 16 8 -3 38 -9 65 -14z m2472 14 c-3 -3 -12 -4 -19 -1 -8 3 -5 6 6 6
11 1 17 -2 13 -5z m1383 -19 c0 -16 -6 -25 -15 -25 -8 0 -15 5 -15 11 0 5 5 7
10 4 6 -3 10 3 10 14 0 12 2 21 5 21 3 0 5 -11 5 -25z m-1390 -70 c25 -27 51
-56 58 -63 9 -10 25 -12 58 -7 48 7 148 48 159 64 9 16 37 13 75 -6 31 -15 32
-17 15 -30 -11 -7 -28 -13 -39 -14 -91 -3 -152 -22 -161 -49 -5 -15 -15 -16
-83 -12 -84 5 -109 15 -89 37 7 7 15 11 19 9 4 -2 9 0 12 5 3 5 -13 31 -37 57
-23 27 -49 58 -57 69 -28 37 22 -6 70 -60z m-1133 18 c-3 -10 -5 -2 -5 17 0
19 2 27 5 18 2 -10 2 -26 0 -35z m2388 7 c6 -26 4 -42 -11 -102 -1 -5 -2 -14
-3 -21 -1 -18 -70 -10 -93 11 -12 9 -18 29 -18 54 0 51 35 88 84 88 30 0 35
-4 41 -30z m-353 -14 c6 -51 -20 -363 -32 -386 -6 -10 -29 -24 -51 -30 -42
-12 -67 -7 -29 5 16 5 18 10 11 19 -8 9 -5 36 9 91 11 43 20 91 20 107 0 15 4
28 9 28 5 0 11 9 14 20 3 11 1 18 -4 14 -17 -10 -9 19 9 32 15 12 15 13 -7 9
-19 -4 -22 -2 -13 7 7 7 12 25 12 41 0 16 4 26 10 22 6 -3 10 3 10 15 0 14 4
19 12 14 8 -5 9 -2 5 9 -3 10 -3 17 2 17 5 0 11 -15 13 -34z m473 -128 c-8
-178 -18 -208 -70 -208 -17 0 -17 2 -5 10 8 5 15 17 16 27 1 10 2 45 4 78 1
46 4 54 10 35 8 -24 8 -24 9 7 1 17 7 34 14 36 9 4 9 7 -1 14 -9 7 -10 22 -3
64 l10 54 -4 -52 c-2 -30 0 -53 5 -53 6 0 10 32 10 70 0 39 3 70 6 70 4 0 3
-69 -1 -152z m889 135 c-4 -10 -8 -40 -10 -68 -2 -69 -2 -69 -18 -56 -11 9
-13 27 -10 69 6 64 9 72 31 72 11 0 13 -5 7 -17z m-397 -124 c-4 -76 -9 -105
-23 -120 -9 -10 -22 -19 -27 -19 -6 0 -3 6 7 13 22 16 35 75 36 160 0 37 3 67
6 67 4 0 4 -45 1 -101z m-4427 81 c0 -12 -64 -12 -100 0 -19 6 -9 8 38 9 35 1
62 -3 62 -9z m1360 0 c0 -5 -5 -10 -11 -10 -5 0 -7 5 -4 10 3 6 8 10 11 10 2
0 4 -4 4 -10z m773 -65 c52 -54 77 -74 92 -71 34 7 108 38 147 63 46 28 68 29
99 4 l24 -19 -28 -11 c-16 -6 -48 -11 -72 -11 -54 0 -95 -15 -116 -42 -14 -19
-22 -20 -87 -13 -50 5 -72 11 -72 20 0 8 9 17 20 20 18 6 15 13 -36 71 -31 35
-53 64 -49 64 4 0 39 -34 78 -75z m1127 -16 c-4 -62 -8 -74 -24 -77 -18 -4
-19 1 -13 69 5 64 19 95 37 84 3 -2 3 -36 0 -76z m-274 62 c-18 -7 -18 -8 -2
-14 16 -6 17 -17 12 -100 -10 -135 -25 -273 -32 -291 -6 -17 -111 -53 -121
-42 -4 3 1 6 11 6 9 0 15 4 12 8 -2 4 3 39 11 77 17 76 24 215 11 215 -4 0 -8
-5 -8 -12 0 -6 -2 -9 -5 -6 -3 3 -3 13 1 22 6 16 8 16 25 0 19 -17 19 -16 16
7 -3 15 -10 23 -21 21 -10 -2 -14 2 -10 11 3 9 13 13 25 10 13 -4 19 0 19 10
0 9 7 23 16 32 12 12 13 19 4 29 -9 11 -7 15 7 19 30 8 50 6 29 -2z m-1556
-11 c0 -5 -2 -10 -4 -10 -3 0 -8 5 -11 10 -3 6 -1 10 4 10 6 0 11 -4 11 -10z
m4301 -35 c7 -13 3 -12 -10 5 -11 14 -21 30 -21 35 0 11 14 -7 31 -40z m-4321
-15 c-8 -5 -19 -10 -25 -10 -5 0 -3 5 5 10 8 5 20 10 25 10 6 0 3 -5 -5 -10z
m1453 -50 c-3 -61 -20 -120 -34 -120 -6 0 -8 -4 -5 -8 2 -4 1 -14 -5 -22 -6
-11 -9 -9 -9 11 0 20 -6 28 -25 33 -31 8 -39 37 -28 101 12 73 33 71 33 -5 0
-74 22 -80 30 -7 3 25 2 43 -3 40 -5 -3 -4 4 3 16 6 13 19 21 28 19 14 -3 17
-14 15 -58z m-332 33 c-11 -4 -11 -7 0 -14 11 -6 11 -40 1 -184 -7 -97 -17
-185 -23 -196 -11 -21 -32 -32 -89 -44 -29 -6 -33 -5 -24 6 6 8 11 32 13 54 1
22 11 76 22 119 11 44 18 90 15 102 -4 13 -2 26 4 29 5 3 10 21 10 40 0 19 5
37 10 40 15 10 12 23 -7 28 -12 3 -8 5 9 6 15 0 30 6 33 11 3 6 14 10 23 9 12
0 13 -2 3 -6z m2671 -58 c5 -11 -2 -6 -16 10 -14 17 -25 35 -25 40 0 11 25
-20 41 -50z m-3168 12 c28 -20 2 -33 -78 -40 l-69 -7 44 29 c49 33 76 37 103
18z m351 3 c-3 -5 0 -10 8 -10 8 0 17 -11 19 -25 3 -13 2 -22 -2 -20 -8 5 -23
-33 -21 -52 1 -7 -3 -21 -9 -32 -7 -14 -6 -21 3 -24 6 -3 -3 -6 -20 -6 -29 -1
-33 2 -33 27 -1 15 -7 43 -14 63 -7 19 -11 40 -8 47 6 19 28 14 39 -10 8 -19
10 -20 16 -4 4 10 3 15 -3 11 -6 -3 -10 -4 -10 0 0 11 25 45 33 45 4 0 5 -4 2
-10z m3415 -29 c23 -33 20 -36 -31 -46 -32 -6 -37 -4 -42 17 -11 38 -8 46 16
51 12 2 25 5 29 6 4 0 16 -12 28 -28z m-3703 -93 c-19 -303 -26 -325 -108
-335 -24 -2 -39 -1 -34 4 6 4 10 13 10 18 1 29 17 121 25 134 4 9 9 32 11 51
2 19 8 38 12 41 12 8 -2 71 -13 64 -5 -3 -11 -1 -15 5 -3 5 -2 10 3 10 5 0 7
14 4 30 -3 23 -1 29 10 25 7 -3 22 1 33 10 20 15 20 15 0 8 -17 -6 -18 -5 -5
9 12 12 18 13 29 4 11 -8 13 -8 8 1 -7 10 5 20 27 22 5 1 6 -42 3 -101z m-272
53 c32 12 36 10 25 -11 -9 -16 -21 -20 -63 -19 -29 0 -61 4 -71 8 -19 7 -18 8
3 23 20 14 28 14 54 3 19 -7 40 -9 52 -4z m2844 -15 c-3 -3 -11 5 -18 17 -13
21 -12 21 5 5 10 -10 16 -20 13 -22z m633 -27 c56 -23 21 -65 -60 -72 -29 -3
-65 -1 -80 3 -15 5 -19 9 -10 9 33 2 70 44 71 82 l1 36 25 -23 c14 -13 38 -28
53 -35z m138 32 c16 -32 12 -40 -25 -47 -44 -8 -50 -3 -33 28 24 42 42 48 58
19z m6024 13 c9 -3 16 -10 16 -15 0 -11 -212 0 -224 12 -11 10 182 13 208 3z
m-9501 -13 c10 -1 17 -9 17 -21 0 -18 -11 -25 -34 -21 -5 1 -3 -6 5 -15 9 -11
9 -15 2 -10 -9 5 -12 -1 -9 -24 2 -17 -1 -33 -6 -36 -4 -3 -7 -13 -6 -22 2
-11 -5 -18 -20 -20 -21 -3 -23 -1 -17 18 4 13 3 20 -2 17 -5 -3 -10 4 -10 16
-2 17 0 19 7 7 12 -19 13 -8 1 24 -7 17 -7 26 2 30 7 2 4 5 -5 5 -22 1 -24 29
-3 37 8 4 13 10 10 14 -3 5 7 7 22 6 16 -2 36 -4 46 -5z m6284 3 c-3 -3 -12
-4 -19 -1 -8 3 -5 6 6 6 11 1 17 -2 13 -5z m-6582 -136 c-6 -138 -23 -269 -37
-285 -12 -15 -87 -37 -96 -29 -3 3 2 6 10 6 11 0 15 10 13 38 -1 20 0 42 4 47
3 6 12 35 19 65 24 101 25 113 14 106 -6 -3 -13 -2 -17 4 -3 5 1 10 9 10 8 0
18 9 21 21 6 19 7 20 20 2 13 -17 14 -16 8 5 -3 12 -9 25 -14 28 -5 3 -9 15
-8 27 0 21 1 21 9 2 8 -18 9 -17 9 7 1 22 -3 26 -16 22 -10 -4 -4 3 12 15 17
11 33 21 38 21 4 0 5 -51 2 -112z m8472 62 c7 0 13 -4 13 -10 0 -5 -4 -10 -9
-10 -13 0 -28 22 -34 50 -6 23 -5 22 5 -2 7 -16 18 -28 25 -28z m-4195 -2 c-3
-24 -9 -46 -15 -50 -5 -3 -35 -9 -66 -12 -104 -12 -112 -15 -101 -37 16 -30
-26 -25 -45 5 -19 28 -10 55 27 80 30 21 41 20 28 -3 -5 -11 -10 -21 -10 -23
0 -2 34 1 75 6 74 9 75 9 81 43 9 50 30 42 26 -9z m-1751 -38 c34 -47 59 -72
77 -76 43 -11 45 -15 15 -45 -29 -30 -65 -36 -132 -23 l-31 7 31 16 c17 9 38
28 47 43 15 26 15 28 -27 87 -23 34 -40 61 -37 61 3 0 29 -32 57 -70z m4584
40 l50 0 -3 -92 c-2 -51 -8 -98 -13 -104 -5 -7 -22 -15 -37 -19 -15 -4 -36
-14 -47 -23 -20 -17 -20 -17 -1 6 11 12 25 22 32 22 23 0 25 18 6 52 -20 37
-82 175 -82 184 0 3 10 -2 22 -10 13 -10 43 -16 73 -16z m2661 19 c3 -6 16 -8
29 -5 15 4 25 1 28 -9 3 -7 11 -128 17 -267 6 -139 13 -266 15 -283 2 -16 7
-192 10 -390 6 -315 5 -358 -8 -342 -13 15 -15 16 -20 2 -6 -13 -11 -13 -44 3
-21 9 -39 20 -41 25 -2 4 -10 7 -18 7 -8 0 -14 5 -14 11 0 5 -4 8 -9 5 -4 -3
-16 3 -25 13 -10 11 -31 25 -47 31 l-29 12 -2 427 c-4 653 -3 695 4 711 3 8 9
23 12 32 4 12 19 18 58 21 29 2 58 4 65 5 6 1 15 -3 19 -9z m-9903 -33 c18 -4
27 -13 27 -26 0 -11 -5 -20 -12 -20 -6 0 -8 -3 -5 -7 4 -3 2 -12 -4 -20 -9 -9
-8 -17 0 -27 12 -14 5 -46 -10 -46 -5 0 -14 11 -19 25 -12 32 -30 32 -30 1 0
-19 -26 -45 -35 -34 -1 2 1 36 6 77 8 71 19 93 43 86 6 -2 23 -6 39 -9z m3387
-1 c17 -21 3 -35 -36 -35 l-34 0 16 25 c18 28 36 32 54 10z m-183 -6 c6 -6 26
-16 46 -23 l35 -12 -24 -27 c-22 -26 -28 -28 -96 -25 -67 3 -71 4 -45 15 15 7
27 20 27 28 0 9 7 18 15 21 8 4 15 12 15 20 0 17 12 18 27 3z m4718 -59 c6 0
11 -6 13 -14 7 -35 -33 -12 -47 27 -18 46 -11 65 7 24 10 -22 22 -38 27 -37z
m-7085 40 c0 -5 -5 -10 -11 -10 -5 0 -7 5 -4 10 3 6 8 10 11 10 2 0 4 -4 4
-10z m1348 -92 c20 -26 42 -45 48 -43 6 2 22 -2 36 -9 14 -7 32 -9 43 -5 11 4
16 8 12 8 -10 1 43 51 54 51 13 0 42 -48 35 -58 -3 -5 -33 -12 -68 -16 -47 -5
-68 -12 -89 -32 -23 -22 -34 -25 -93 -23 -62 2 -78 12 -31 21 11 2 24 13 30
26 5 12 13 22 17 22 18 0 5 35 -32 85 -40 55 -56 91 -19 45 10 -14 36 -46 57
-72z m6197 62 c-16 -4 -46 -8 -65 -8 -32 0 -33 1 -10 8 14 4 43 8 65 8 38 0
39 -1 10 -8z m-501 -32 c-3 -4 -12 -8 -20 -8 -12 0 -12 4 -2 20 8 13 15 16 19
8 4 -7 5 -16 3 -20z m-4995 3 c13 -24 -3 -31 -62 -30 -32 0 -37 2 -22 9 12 4
27 15 34 24 18 21 38 20 50 -3z m-1122 -7 c-3 -3 -12 -4 -19 -1 -8 3 -5 6 6 6
11 1 17 -2 13 -5z m1663 -34 c0 -20 -5 -30 -15 -30 -18 0 -19 14 -5 41 15 27
20 24 20 -11z m-1732 -45 c45 -57 50 -60 97 -63 44 -3 51 0 72 27 30 38 56 40
71 6 15 -32 15 -31 -4 -49 -9 -9 -32 -16 -55 -16 -45 0 -107 -23 -114 -42 -4
-9 -24 -12 -72 -10 l-68 4 33 14 c19 7 31 18 27 23 -3 5 4 19 16 30 l22 21
-48 61 c-27 34 -43 60 -37 58 6 -2 33 -31 60 -64z m6201 62 c-2 -1 -13 -9 -24
-17 -19 -14 -19 -14 -6 3 7 9 18 17 24 17 6 0 8 -1 6 -3z m-6614 -16 c3 -5 1
-12 -5 -16 -5 -3 -10 1 -10 9 0 18 6 21 15 7z m6533 4 c-6 -6 -164 -35 -190
-35 -10 0 -18 4 -18 8 0 5 39 13 88 19 117 13 126 14 120 8z m-5281 -51 c-3
-3 -12 -4 -19 -1 -8 3 -5 6 6 6 11 1 17 -2 13 -5z m-1204 -134 c27 0 49 9 76
30 42 34 68 32 77 -7 9 -35 -7 -46 -82 -54 -46 -5 -72 -13 -88 -28 -17 -16
-35 -21 -79 -21 -31 0 -59 5 -62 10 -3 6 5 10 19 10 22 0 60 39 39 40 -4 0 0
5 10 11 9 5 17 13 17 18 0 4 -20 31 -45 60 -66 78 -54 77 18 -2 56 -61 66 -67
100 -67z m6683 112 c31 -20 16 -73 -31 -110 -34 -27 -32 -33 10 -29 36 4 47
-6 19 -17 -9 -3 -33 -6 -55 -6 -47 0 -52 19 -13 49 14 11 35 32 46 46 19 24
19 28 5 42 -14 14 -17 13 -33 -6 -22 -25 -34 -27 -34 -5 0 9 5 12 12 8 7 -5 8
-3 3 6 -14 23 43 41 71 22z m-5106 -26 c0 -8 -4 -18 -10 -21 -5 -3 -10 3 -10
14 0 12 5 21 10 21 6 0 10 -6 10 -14z m-2107 -110 c16 -21 38 -41 50 -45 32
-12 89 5 114 33 12 15 25 26 29 26 15 0 44 -34 44 -50 0 -22 -13 -27 -91 -36
-46 -5 -69 -13 -86 -31 -25 -24 -72 -29 -123 -13 -23 7 -23 8 -3 9 34 2 53 12
53 28 0 9 7 21 16 27 14 10 10 19 -30 67 -25 31 -46 60 -46 65 1 9 24 -17 73
-80z m1522 47 c-3 -21 -8 -49 -11 -62 -5 -21 -2 -23 26 -19 33 5 43 -1 32 -19
-8 -13 -85 -22 -90 -10 -2 4 0 39 4 77 6 60 9 70 26 70 16 0 18 -5 13 -37z
m579 -6 c-3 -9 -10 -17 -15 -17 -11 0 -12 34 -2 44 11 11 24 -9 17 -27z m1906
18 c7 -8 16 -15 20 -15 5 0 35 -15 67 -34 44 -24 68 -32 91 -28 27 3 31 1 26
-12 -3 -9 -2 -16 4 -16 5 0 13 7 16 16 11 27 19 8 21 -50 2 -47 0 -56 -17 -62
-19 -6 -45 9 -169 98 -97 70 -103 76 -93 102 8 20 18 20 34 1z m-2765 -67 c-3
-35 -12 -119 -21 -188 -17 -140 -26 -156 -90 -170 -35 -8 -37 -7 -20 5 10 8
22 12 27 10 9 -6 6 15 -5 33 -8 13 13 104 23 97 4 -2 7 11 7 28 2 41 25 130
36 138 5 3 10 16 11 27 1 12 5 22 10 22 5 0 8 10 7 23 -3 31 -1 37 10 37 6 0
8 -25 5 -62z m5270 -10 c-8 -90 -10 -98 -31 -98 -14 0 -15 8 -9 59 7 57 6 59
-14 54 -13 -3 -21 -1 -21 7 0 17 41 49 63 50 17 0 18 -7 12 -72z m-7647 8 c-1
-30 0 -52 5 -49 4 2 8 14 8 26 1 16 3 17 6 5 7 -26 -13 -55 -41 -60 -14 -3
-24 -2 -21 1 2 4 0 13 -5 21 -6 9 -3 18 8 27 11 8 12 12 5 13 -7 0 -13 5 -13
11 0 5 4 8 9 5 5 -3 11 8 15 24 10 53 28 35 24 -24z m3762 23 c0 -23 -38 -45
-52 -31 -6 6 -7 19 -4 30 9 26 56 27 56 1z m-1520 4 c0 -16 -29 -87 -30 -74 0
8 -3 12 -6 8 -3 -3 1 -16 10 -29 14 -20 22 -58 12 -58 -2 0 -11 -3 -20 -6 -11
-4 -20 4 -30 27 l-15 34 -7 -32 c-3 -18 -13 -33 -20 -33 -16 0 -17 26 -8 108
6 43 10 52 27 52 14 0 18 -5 14 -20 -7 -28 9 -25 29 5 15 23 44 35 44 18z
m617 -25 c-3 -7 -5 -2 -5 12 0 14 2 19 5 13 2 -7 2 -19 0 -25z m-2081 -118
c29 0 58 14 85 41 27 27 57 24 65 -6 4 -14 4 -28 1 -31 -3 -3 -34 -9 -70 -14
-66 -8 -100 -21 -114 -43 -6 -8 -26 -10 -68 -7 -55 5 -57 6 -28 13 18 5 42 21
53 37 l21 29 -33 38 c-63 71 -62 78 1 11 45 -49 70 -68 87 -68z m1130 86 c-3
-17 -13 -94 -21 -171 -20 -177 -27 -200 -67 -214 -39 -14 -81 -14 -73 -1 4 6
8 23 11 38 3 15 11 43 18 62 7 19 24 80 36 135 15 64 31 107 43 120 21 19 21
19 -9 32 l-29 14 29 -6 c21 -4 27 -3 24 7 -4 8 3 14 19 14 23 2 24 -1 19 -30z
m940 -63 c-13 -130 -25 -173 -52 -184 -38 -14 -42 -11 -11 10 33 21 36 32 10
43 -15 7 -15 8 3 4 24 -4 26 2 40 132 4 34 9 62 11 62 3 0 2 -30 -1 -67z
m-1101 5 c-4 -29 -7 -63 -7 -75 0 -13 -4 -20 -9 -17 -5 3 -9 -4 -9 -15 0 -11
-4 -23 -10 -26 -5 -3 -7 0 -4 9 4 11 0 13 -15 9 -26 -7 -51 13 -51 38 0 13 7
19 21 19 11 0 17 -4 14 -10 -3 -5 -2 -10 4 -10 5 0 13 26 17 58 8 69 10 72 36
72 19 0 20 -4 13 -52z m-310 -94 c-24 -183 -34 -250 -40 -266 -7 -18 -40 -34
-91 -44 -30 -5 -35 -4 -28 7 5 8 10 23 11 34 2 19 19 83 31 115 9 27 9 50 -1
50 -6 0 -8 28 -4 73 3 42 2 60 -3 42 -4 -16 -8 -45 -9 -62 -1 -26 -5 -33 -21
-33 -12 0 -20 7 -20 18 0 14 -2 15 -10 2 -8 -12 -10 -10 -11 10 -1 21 -2 22
-6 5 -3 -11 -10 -26 -15 -32 -19 -23 -29 -2 -23 50 10 85 14 97 34 97 14 0 17
-6 14 -27 -3 -27 -3 -27 7 -5 5 13 14 20 20 17 5 -3 10 3 10 13 0 15 5 19 20
15 11 -3 20 -12 20 -19 0 -19 26 -18 34 1 3 8 12 15 19 15 9 0 13 9 12 23 -2
20 1 23 21 19 16 -3 24 0 24 9 1 10 3 10 10 -2 6 -10 4 -55 -5 -125z m1785
111 c0 -8 -4 -15 -10 -15 -5 0 -10 7 -10 15 0 8 5 15 10 15 6 0 10 -7 10 -15z
m-1853 -17 c-3 -8 -6 -5 -6 6 -1 11 2 17 5 13 3 -3 4 -12 1 -19z m-1784 -31
c4 3 7 1 7 -5 0 -6 -8 -10 -18 -9 -10 0 -18 9 -18 20 0 16 2 16 12 3 6 -9 14
-13 17 -9z m1417 -21 c0 -63 -41 -331 -55 -363 -10 -23 -24 -35 -52 -42 -55
-16 -78 -14 -64 2 6 8 8 16 5 19 -3 3 2 33 10 66 9 33 15 72 14 87 -3 31 -27
48 -49 34 -7 -5 -10 -9 -5 -9 5 0 3 -7 -4 -15 -7 -8 -17 -12 -22 -9 -6 4 -5
10 3 15 11 7 10 9 -4 9 -10 0 -16 4 -12 9 3 5 1 12 -5 16 -17 11 -11 78 10
113 12 19 16 31 10 27 -8 -5 -8 -1 0 11 6 11 22 19 35 19 13 0 22 -2 20 -4 -2
-2 6 -11 18 -21 21 -17 22 -17 37 4 8 11 15 25 15 31 0 8 60 31 88 34 4 1 7
-14 7 -33z m2220 13 c0 -5 -7 -9 -15 -9 -15 0 -20 12 -9 23 8 8 24 -1 24 -14z
m925 -69 c32 -49 65 -91 74 -93 28 -6 -62 -27 -114 -26 -27 1 -41 3 -30 6 11
2 30 6 42 8 15 4 21 11 18 25 -2 13 2 20 11 20 21 0 18 11 -26 79 -38 59 -44
71 -36 71 2 0 29 -40 61 -90z m-5305 45 c0 -54 -23 -101 -54 -109 -15 -4 -31
-4 -36 -1 -4 3 -10 1 -12 -4 -1 -5 -23 -12 -47 -16 -31 -5 -42 -4 -37 4 4 6
19 11 34 12 26 1 26 1 -5 10 -35 10 -38 15 -23 39 6 10 10 11 10 3 0 -7 4 -13
9 -13 5 0 7 8 4 18 -3 12 3 22 19 29 13 7 17 12 11 12 -7 1 -13 6 -13 12 0 13
41 1 53 -15 6 -7 7 -6 5 4 -3 8 8 22 26 32 46 25 56 23 56 -17z m333 18 c-4
-11 -3 -14 5 -9 7 4 12 1 12 -8 0 -9 -6 -16 -12 -16 -10 0 -9 -3 1 -9 16 -10
6 -31 -14 -31 -9 0 -12 6 -8 17 4 11 3 14 -5 9 -9 -5 -9 0 -2 20 6 15 13 31
16 35 9 15 14 10 7 -8z m1317 -23 c0 -17 -6 -31 -12 -31 -41 -4 -78 -3 -78 1
0 12 65 59 83 60 4 0 7 -13 7 -30z m6987 -47 c-3 -10 -5 -2 -5 17 0 19 2 27 5
18 2 -10 2 -26 0 -35z m-7169 15 c-6 -18 -28 -21 -28 -4 0 9 7 16 16 16 9 0
14 -5 12 -12z m212 -9 c0 -5 5 -7 10 -4 6 4 10 3 9 -2 -1 -4 0 -21 1 -38 l3
-30 7 35 c12 57 1 -71 -17 -195 -18 -126 -25 -150 -50 -164 -23 -12 -102 -25
-86 -14 6 4 14 31 18 58 4 28 11 55 15 60 5 6 11 27 15 48 4 20 11 37 17 37 5
0 6 5 3 10 -4 6 -2 17 4 24 6 7 12 35 14 62 2 30 8 48 15 47 7 -2 12 4 12 12
0 8 -6 15 -12 15 -7 0 -5 5 5 11 14 8 16 14 6 25 -8 10 -8 14 0 14 6 0 11 -5
11 -11z m3141 -122 l36 -40 48 16 c30 11 62 15 85 11 34 -6 41 -3 70 30 38 42
57 45 69 14 12 -30 5 -36 -59 -48 -29 -6 -61 -16 -69 -24 -11 -9 -55 -15 -143
-18 l-127 -5 14 28 c8 15 19 31 25 34 17 11 10 39 -20 79 -17 22 -30 44 -30
50 0 6 15 -12 33 -39 17 -26 48 -66 68 -88z m-3231 79 c0 -20 -16 -36 -36 -36
-13 0 -24 -4 -24 -10 0 -5 9 -10 19 -10 32 0 33 -27 1 -34 -22 -4 -29 -12 -32
-33 -2 -17 -10 -29 -21 -31 -15 -3 -17 1 -13 30 3 18 8 50 11 72 3 21 8 42 11
47 5 9 84 13 84 5z m2669 -79 c23 -35 52 -74 65 -86 21 -20 27 -21 72 -11 27
6 65 13 84 16 l35 4 -27 -25 c-26 -24 -32 -25 -114 -20 -48 2 -92 1 -98 -3 -6
-4 -21 -7 -32 -7 -21 -1 -21 0 -6 25 9 14 22 32 29 40 10 13 6 25 -27 73 -22
31 -36 57 -31 57 5 0 27 -29 50 -63z m-452 -115 c41 -48 25 -45 167 -28 26 4
50 16 73 38 27 26 37 30 51 22 22 -14 28 -44 10 -55 -7 -5 -32 -9 -54 -9 -27
0 -51 -7 -68 -21 -24 -19 -39 -21 -122 -20 -61 1 -94 -2 -94 -8 0 -17 -20 -13
-27 5 -3 8 4 29 16 45 l23 30 -29 40 c-68 97 -55 87 54 -39z m1847 83 c9 -13
16 -38 16 -55 0 -23 -4 -30 -20 -30 -14 0 -20 -7 -20 -24 0 -24 -23 -41 -41
-30 -5 3 -9 14 -9 25 0 10 -7 19 -15 19 -25 0 -17 39 17 81 37 45 50 48 72 14z
m-1043 -6 c14 -27 -1 -39 -49 -39 l-33 0 23 30 c26 35 43 38 59 9z m-1326 -93
c46 -62 77 -86 114 -86 34 0 141 39 163 60 26 24 45 25 70 3 38 -34 17 -53
-56 -53 -29 0 -55 -8 -79 -24 -32 -22 -42 -23 -120 -19 -84 6 -86 5 -91 -18
-3 -13 -17 -94 -31 -179 -27 -164 -41 -226 -54 -234 -18 -12 -91 -23 -91 -15
0 5 7 9 16 9 10 0 12 5 7 13 -9 15 -4 58 9 75 6 6 8 12 5 12 -3 0 -1 16 3 35
5 21 4 33 -2 29 -5 -3 -20 6 -34 21 -17 18 -24 22 -24 11 0 -26 -40 -20 -41 7
l0 22 -9 -22 c-10 -24 -40 -32 -39 -10 0 6 6 41 13 77 10 52 16 65 31 65 12 0
22 -12 30 -34 l11 -34 17 35 c16 33 34 48 58 48 6 0 8 -4 5 -8 -2 -4 7 -8 22
-7 23 0 27 5 30 33 2 20 9 32 18 32 8 0 14 5 14 11 0 5 5 7 10 4 6 -3 10 -1
10 4 0 6 -5 11 -12 11 -9 0 -9 3 0 12 7 7 12 18 12 26 0 8 8 21 17 28 16 11
15 15 -16 56 -19 23 -39 49 -44 56 -6 8 -6 12 1 12 6 0 32 -29 57 -64z m-3278
8 c-3 -3 -12 -4 -19 -1 -8 3 -5 6 6 6 11 1 17 -2 13 -5z m93 -6 c0 -7 -5 -31
-10 -53 -6 -22 -12 -67 -15 -100 -8 -92 -26 -174 -44 -196 -11 -13 -43 -23
-114 -35 -54 -9 -101 -13 -105 -9 -4 4 3 15 15 24 17 14 19 21 10 30 -9 9 -9
11 3 6 10 -3 23 8 40 35 20 32 26 37 31 23 4 -14 7 -12 13 10 3 15 13 27 21
27 8 0 15 9 15 19 0 10 7 21 15 25 8 3 16 18 16 33 2 26 2 25 9 -7 4 -19 8
-27 9 -17 0 10 8 25 16 33 18 19 20 74 3 74 -7 1 2 7 20 15 29 13 36 25 35 63
-1 6 3 12 8 12 5 0 9 -6 9 -12z m1143 -23 c-7 -21 -13 -19 -13 6 0 11 4 18 10
14 5 -3 7 -12 3 -20z m1567 -29 c22 -30 56 -67 76 -82 l35 -27 47 16 c26 10
55 17 64 17 9 0 31 14 48 32 27 26 36 30 57 22 29 -10 51 -39 40 -50 -4 -4
-35 -11 -68 -15 -38 -4 -73 -15 -90 -28 -26 -19 -37 -21 -110 -15 -61 5 -83 4
-89 -6 -4 -7 -12 -10 -18 -6 -15 9 5 63 25 70 14 6 14 9 -4 29 -39 45 -74 97
-64 97 6 0 28 -24 51 -54z m1850 11 c0 -20 -63 -113 -67 -100 -2 6 3 23 11 37
9 14 23 37 31 51 17 28 25 32 25 12z m4734 4 c3 -5 -1 -11 -9 -14 -9 -4 -12
-1 -8 9 6 16 10 17 17 5z m-6996 -8 c-10 -2 -26 -2 -35 0 -10 3 -2 5 17 5 19
0 27 -2 18 -5z m-1158 -44 c0 -22 -5 -50 -11 -61 -10 -18 -9 -20 5 -15 14 6
15 3 6 -14 -12 -21 -48 -39 -78 -39 -14 0 -14 2 -3 9 8 5 11 16 7 26 -7 19 30
105 45 105 5 0 9 7 9 15 0 8 5 15 10 15 6 0 10 -18 10 -41z m27 19 c-3 -8 -6
-5 -6 6 -1 11 2 17 5 13 3 -3 4 -12 1 -19z m8093 12 c0 -11 -33 -30 -51 -30
-8 0 -5 7 6 20 19 21 45 27 45 10z m210 0 c0 -5 -12 -10 -27 -10 -16 0 -46 -3
-68 -6 -28 -5 -37 -3 -30 4 9 9 25 12 108 20 9 1 17 -2 17 -8z m-7203 -70 c26
-33 62 -67 79 -76 30 -16 34 -16 103 10 39 16 76 36 81 47 15 27 46 24 77 -7
33 -33 22 -40 -64 -50 -38 -4 -73 -14 -87 -25 -19 -15 -41 -19 -110 -19 -49 0
-86 -4 -86 -10 0 -5 -8 -7 -17 -3 -17 5 -17 5 -2 -8 15 -13 14 -26 -12 -163
-48 -245 -44 -239 -129 -252 -32 -5 -41 -4 -36 5 4 6 9 24 12 39 2 15 9 51 15
80 12 60 13 57 -20 67 -19 6 -23 4 -18 -8 4 -11 -1 -14 -20 -12 -45 5 -48 20
-22 138 11 46 12 47 50 47 26 0 41 -6 48 -17 10 -17 10 -17 11 0 0 9 6 17 13
17 16 1 50 48 42 60 -3 5 11 12 30 16 23 4 40 14 46 28 5 11 14 29 21 38 10
14 8 22 -13 45 -50 57 -62 73 -51 73 6 0 33 -27 59 -60z m-1110 8 c-3 -8 -6
-5 -6 6 -1 11 2 17 5 13 3 -3 4 -12 1 -19z m680 16 c-3 -3 -12 -4 -19 -1 -8 3
-5 6 6 6 11 1 17 -2 13 -5z m-5 -89 c68 -82 89 -92 162 -71 30 9 68 27 84 41
37 31 66 32 86 3 20 -28 11 -33 -72 -43 -36 -4 -72 -15 -84 -25 -19 -15 -35
-17 -101 -12 -92 6 -93 5 -103 -80 -5 -44 -11 -58 -23 -58 -12 0 -13 -2 -3 -8
10 -7 9 -27 -6 -101 -10 -51 -20 -89 -24 -86 -4 4 -4 -2 -1 -14 8 -31 -22 -69
-64 -80 -52 -15 -68 -14 -55 2 5 6 12 26 15 42 22 113 23 125 13 125 -6 0 -4
5 4 10 14 9 7 14 -13 11 -4 0 -1 14 6 31 8 20 21 32 30 32 12 -1 14 2 8 14
-11 19 5 68 31 94 20 20 25 43 6 32 -7 -4 -8 -3 -4 4 4 6 22 14 42 18 23 4 43
18 61 40 29 39 31 33 -41 112 -17 17 -25 32 -19 32 7 0 36 -29 65 -65z m1825
33 c-3 -8 -6 -5 -6 6 -1 11 2 17 5 13 3 -3 4 -12 1 -19z m-2949 -13 c-3 -3 -9
2 -12 12 -6 14 -5 15 5 6 7 -7 10 -15 7 -18z m-13 -42 c-4 -19 -3 -23 7 -17 9
6 9 3 -1 -9 -12 -16 -12 -17 5 -11 15 4 16 3 4 -4 -8 -5 -31 -12 -50 -16 -19
-3 -28 -3 -20 1 20 8 35 25 36 41 1 6 2 21 3 33 0 12 6 17 12 13 6 -3 8 -17 4
-31z m3325 22 c0 -8 -4 -15 -10 -15 -5 0 -10 7 -10 15 0 8 5 15 10 15 6 0 10
-7 10 -15z m5148 3 c32 -40 21 -120 -21 -152 -23 -17 -30 -18 -53 -7 -25 11
-26 14 -22 73 4 48 9 65 27 79 27 22 54 24 69 7z m-6468 -13 c9 -11 6 -46 -15
-167 -37 -220 -40 -227 -80 -244 -44 -18 -72 -18 -72 1 0 8 4 15 8 15 4 0 10
27 14 60 4 33 12 63 19 68 8 4 10 16 5 32 -7 24 -7 24 -8 3 -1 -13 -5 -23 -11
-23 -5 0 -7 6 -4 14 4 9 -5 15 -26 18 -23 3 -30 1 -26 -9 3 -7 1 -13 -4 -13
-6 0 -10 7 -10 16 0 12 -3 14 -13 6 -7 -6 -18 -7 -26 -3 -10 7 -10 20 0 72 14
76 19 84 54 75 19 -5 25 -12 21 -22 -3 -9 -1 -12 4 -9 6 3 10 13 10 21 0 8 2
14 4 14 2 0 12 3 22 7 14 5 16 2 11 -18 -4 -15 0 -32 10 -44 13 -16 15 -17 10
-2 -4 11 1 22 13 29 12 8 20 24 20 40 0 15 5 30 10 33 6 4 7 11 4 17 -7 11 13
28 32 28 6 0 17 -7 24 -15z m-2396 -38 c4 -19 3 -26 -3 -22 -7 4 -9 -5 -7 -24
3 -24 -1 -31 -22 -36 -13 -3 -27 -4 -30 0 -3 3 0 5 7 5 8 0 11 8 8 19 -3 11 2
29 10 40 8 12 11 21 7 21 -3 0 -1 7 6 15 15 18 15 18 24 -18z m4223 7 c3 -9
-1 -29 -10 -44 -9 -15 -14 -29 -11 -32 2 -3 -2 -11 -10 -17 -24 -20 -27 3 -6
44 11 21 14 33 8 27 -16 -16 -28 -15 -28 3 0 13 25 34 43 35 4 0 10 -7 14 -16z
m-997 -10 c0 -12 -21 -44 -29 -44 -7 0 -8 36 -2 48 2 5 31 2 31 -4z m-1806
-33 c23 -25 5 -36 -64 -39 -36 -2 -66 -10 -85 -23 l-30 -20 28 25 c15 14 34
26 41 26 7 0 23 11 36 25 28 30 51 32 74 6z m433 3 c-3 -3 -12 -4 -19 -1 -8 3
-5 6 6 6 11 1 17 -2 13 -5z m2470 -36 c-3 -8 -6 -5 -6 6 -1 11 2 17 5 13 3 -3
4 -12 1 -19z m-3180 1 c6 -6 9 -18 6 -26 -5 -12 -7 -12 -15 -1 -7 10 -11 10
-15 1 -2 -7 -11 -13 -19 -13 -12 0 -12 4 2 25 18 28 25 30 41 14z m640 -5 c-3
-3 -12 -4 -19 -1 -8 3 -5 6 6 6 11 1 17 -2 13 -5z m2030 -16 c-3 -8 -6 -5 -6
6 -1 11 2 17 5 13 3 -3 4 -12 1 -19z m-126 2 c25 -14 24 -28 -3 -51 -28 -22
-38 -24 -38 -4 0 8 5 15 10 15 6 0 8 11 4 25 -7 28 -2 30 27 15z m-2478 -17
c-7 -2 -21 -2 -30 0 -10 3 -4 5 12 5 17 0 24 -2 18 -5z m-153 -39 c0 -8 -4
-13 -8 -10 -5 3 -8 -3 -8 -12 0 -46 -5 -72 -13 -72 -4 0 -6 12 -4 28 4 21 2
24 -6 12 -9 -12 -11 -11 -11 8 0 12 5 22 11 22 8 0 8 4 0 14 -9 11 -9 15 1 19
25 10 38 7 38 -9z m2257 -6 c-3 -8 -6 -5 -6 6 -1 11 2 17 5 13 3 -3 4 -12 1
-19z m-1938 -37 c-19 -55 -60 -121 -74 -121 -21 0 -28 18 -30 74 -2 84 28 119
41 49 4 -21 9 -31 12 -23 3 8 14 28 25 43 25 36 41 22 26 -22z m1841 39 c0 -5
-8 -14 -17 -19 -10 -6 -12 -11 -5 -11 6 0 12 -7 12 -16 0 -12 -6 -15 -22 -10
-13 3 -26 6 -30 6 -17 0 -7 28 15 43 25 18 47 21 47 7z m2307 -49 c11 -18 8
-21 -45 -31 -31 -7 -64 -18 -72 -26 -12 -10 -62 -14 -195 -17 -172 -3 -176 -3
-105 9 41 7 96 19 121 28 32 10 71 13 125 9 74 -4 81 -3 108 21 35 31 47 32
63 7z m2200 -10 l22 -28 -38 -37 c-48 -47 -86 -50 -44 -3 17 18 16 19 -32 16
-39 -3 -50 0 -50 11 0 10 14 17 42 21 51 6 60 14 43 34 -11 13 -9 15 12 15 15
0 32 -11 45 -29z m-4431 -26 c-9 -14 -21 -25 -26 -25 -6 0 -1 9 10 20 11 11
20 28 21 38 0 10 2 12 6 4 3 -7 -2 -24 -11 -37z m-2352 -15 c2 0 2 10 -2 23
-5 20 -4 21 11 8 13 -10 15 -17 6 -27 -17 -21 -62 8 -52 33 5 12 9 10 20 -11
7 -14 15 -26 17 -26z m4763 44 c-3 -3 -12 -4 -19 -1 -8 3 -5 6 6 6 11 1 17 -2
13 -5z m-1582 -92 c11 -12 27 -22 37 -22 16 0 52 -39 44 -48 -2 -2 -34 -10
-71 -17 -37 -8 -72 -19 -79 -24 -6 -5 -76 -9 -156 -9 l-145 1 80 14 c44 7 109
16 145 19 96 7 110 12 103 31 -4 10 1 21 12 29 18 13 17 16 -13 59 -39 56 -42
70 -4 24 15 -19 36 -44 47 -57z m535 55 c66 -56 85 -63 116 -41 15 10 33 24
41 29 10 7 18 5 29 -9 8 -11 14 -23 14 -26 0 -4 -28 -12 -61 -18 -34 -6 -69
-18 -78 -26 -14 -13 -46 -15 -169 -13 l-152 2 83 13 c89 14 127 28 127 48 0 7
6 14 12 16 10 4 10 10 1 31 -16 35 -9 34 37 -6z m2396 -34 c-5 -44 -4 -54 4
-40 14 22 30 22 30 -1 0 -10 -15 -32 -33 -50 l-32 -31 -27 33 c-17 21 -23 37
-18 46 7 11 12 11 23 2 12 -10 16 -7 21 19 3 17 6 42 6 55 0 15 6 24 16 24 14
0 15 -9 10 -57z m-7211 -13 c-11 -5 -14 -9 -7 -9 6 -1 12 -13 12 -27 0 -41
-60 -296 -75 -320 -15 -23 -47 -31 -246 -59 -130 -18 -137 -19 -122 -4 6 6 9
18 6 26 -5 12 -1 14 16 8 22 -7 27 12 6 27 -5 4 0 8 13 8 12 0 22 5 22 10 0 6
7 10 15 10 29 0 95 42 93 59 -2 9 7 20 20 26 12 5 22 18 22 27 0 10 7 18 15
18 9 0 12 6 9 15 -4 8 2 27 12 43 10 15 17 33 16 40 -2 6 2 12 8 12 5 0 10 6
10 14 0 18 43 46 70 46 12 0 19 4 16 9 -7 10 38 29 69 30 l20 0 -20 -9z m5922
-45 c-4 -41 -3 -45 14 -40 13 4 19 1 19 -8 0 -8 -10 -17 -22 -21 -48 -12 -50
-9 -43 47 8 58 12 67 27 67 7 0 9 -17 5 -45z m-6024 28 c-7 -2 -19 -2 -25 0
-7 3 -2 5 12 5 14 0 19 -2 13 -5z m1197 -3 c0 -5 -7 -10 -16 -10 -8 0 -12 5
-9 10 3 6 10 10 16 10 5 0 9 -4 9 -10z m68 -22 c0 -18 -5 -61 -12 -95 -10 -46
-10 -63 -2 -63 6 0 4 -5 -4 -10 -13 -9 -13 -10 0 -10 33 -1 -25 -30 -59 -30
-30 1 -33 2 -18 11 12 7 16 17 12 30 -4 10 -2 19 4 19 6 0 8 6 5 14 -3 8 6 38
20 67 15 28 25 54 22 56 -3 4 24 43 30 43 0 0 1 -14 2 -32z m4717 22 c8 -13
-6 -110 -16 -110 -4 0 -11 9 -14 20 -3 11 -11 20 -16 20 -5 0 -9 -9 -9 -20 0
-11 -7 -20 -16 -20 -12 0 -14 8 -8 45 3 25 2 45 -3 45 -18 0 -33 -25 -33 -57
0 -20 -5 -33 -13 -33 -9 0 -11 12 -9 40 3 26 0 40 -8 40 -6 0 -10 6 -8 13 4
10 51 20 125 25 12 1 25 -2 28 -8z m715 -8 c0 -4 -6 -14 -12 -21 -11 -11 -5
-12 30 -6 38 6 42 5 42 -14 0 -12 -4 -22 -10 -22 -5 -1 -19 -3 -30 -4 -11 -1
-28 -3 -37 -4 -13 -1 -14 -4 -5 -13 17 -17 15 -28 -7 -28 -11 0 -29 12 -41 27
l-21 26 33 34 c30 31 58 43 58 25z m-885 -12 c3 -5 3 -15 -1 -21 -5 -8 -9 -7
-14 1 -14 22 -40 3 -40 -30 0 -32 16 -39 39 -17 10 10 12 8 9 -8 -2 -15 -11
-20 -38 -20 -31 0 -35 3 -38 28 -5 38 22 77 53 77 13 0 27 -4 30 -10z m-4635
-10 c-20 -13 -33 -13 -25 0 3 6 14 10 23 10 15 0 15 -2 2 -10z m4050 -35 c0
-8 9 -24 20 -35 25 -25 25 -55 1 -102 -11 -19 -18 -37 -16 -39 2 -2 -13 -5
-32 -7 -38 -2 -73 19 -73 45 0 7 -7 13 -15 13 -24 0 -17 26 11 45 21 13 23 19
13 31 -9 12 -9 18 0 27 9 9 14 9 19 0 9 -14 26 -5 35 20 8 21 37 23 37 2z
m-1338 -12 c23 -21 23 -33 -1 -33 -11 0 -23 -4 -26 -10 -11 -18 -23 -10 -27
20 -3 21 0 30 11 33 9 3 18 5 20 6 3 0 13 -6 23 -16z m-1459 -10 c-7 -2 -21
-2 -30 0 -10 3 -4 5 12 5 17 0 24 -2 18 -5z m2314 -25 c-3 -8 -6 -5 -6 6 -1
11 2 17 5 13 3 -3 4 -12 1 -19z m-1334 -32 c6 -15 -1 -26 -15 -26 -4 0 -8 9
-8 20 0 23 15 27 23 6z m1199 -3 c2 -10 1 -33 -3 -51 -4 -17 -3 -35 2 -38 5
-3 9 -20 9 -37 0 -24 -3 -28 -10 -17 -7 12 -10 8 -10 -14 0 -16 -3 -26 -7 -23
-3 4 -12 2 -20 -5 -8 -6 -31 -14 -51 -18 -31 -5 -41 -2 -60 18 -21 22 -23 31
-17 76 8 61 25 98 45 102 8 2 35 7 60 12 25 6 48 10 52 11 3 1 8 -7 10 -16z
m124 -50 c-24 -201 -38 -268 -59 -288 -11 -11 -15 -13 -9 -4 7 9 10 25 6 35
-5 15 -4 16 4 5 8 -11 9 1 6 40 -4 39 -2 50 5 39 14 -19 14 -9 1 26 -8 21 -7
29 4 38 9 6 18 27 20 46 11 80 19 120 23 120 3 0 2 -26 -1 -57z m-5287 -4 c1
8 4 12 7 8 3 -3 1 -14 -5 -24 -8 -14 -10 -14 -11 -3 0 11 -2 12 -8 3 -4 -7 -8
6 -9 30 l-1 42 13 -35 c8 -19 14 -29 14 -21z m4231 33 c0 -4 -21 -6 -47 -4
-83 5 -90 9 -20 11 37 0 67 -2 67 -7z m-1176 -56 c33 -15 82 -29 110 -31 27
-3 51 -7 53 -9 2 -2 -27 -7 -64 -11 -87 -9 -156 -24 -163 -35 -3 -5 -25 -12
-49 -16 -32 -5 -42 -4 -37 4 8 14 1 15 -69 14 l-50 -1 50 14 c28 8 65 15 83
15 18 0 46 7 63 15 24 13 28 19 20 34 -6 10 -17 23 -25 31 -9 7 -16 17 -16 23
0 5 8 3 18 -5 9 -8 44 -27 76 -42z m439 29 c17 -24 17 -25 0 -26 -16 0 -16 -1
2 -8 18 -7 17 -9 -10 -14 -69 -13 -150 -18 -135 -8 8 6 31 11 50 11 46 0 62
11 63 44 2 32 7 32 30 1z m437 4 c-25 -4 -58 -7 -75 -7 -29 1 -29 1 5 8 19 4
53 7 75 7 l40 0 -45 -8z m2027 -11 c-3 -8 -6 -5 -6 6 -1 11 2 17 5 13 3 -3 4
-12 1 -19z m-1310 -10 c-3 -8 -6 -5 -6 6 -1 11 2 17 5 13 3 -3 4 -12 1 -19z
m-4670 -68 c2 -2 8 2 13 10 8 13 14 12 45 -4 29 -16 38 -17 44 -7 6 9 11 10
15 2 4 -6 2 -11 -3 -11 -6 0 -11 -7 -11 -15 0 -8 -8 -15 -17 -15 -15 0 -16 -2
-3 -10 10 -6 16 -6 18 0 2 6 16 9 30 9 17 -1 21 -3 10 -6 -22 -6 -23 -19 -3
-27 8 -3 15 -10 15 -16 0 -5 -7 -10 -15 -10 -8 0 -15 4 -15 8 0 12 -69 12 -76
0 -3 -5 2 -16 12 -23 13 -9 14 -14 6 -15 -7 0 -21 7 -30 16 -15 15 -17 15 -25
-10 -5 -14 -16 -26 -25 -26 -15 1 -15 2 1 14 14 11 16 18 7 41 -6 15 -8 37 -4
48 4 13 2 17 -5 13 -6 -4 -12 -28 -13 -54 l-1 -47 -6 45 c-4 25 -3 53 2 63 5
11 9 40 9 65 l1 47 10 -40 c5 -22 12 -42 14 -45z m1396 27 c7 4 6 0 -2 -10 -7
-9 -25 -17 -40 -17 -14 0 -21 4 -15 8 6 4 17 22 25 40 l14 33 3 -31 c2 -20 7
-28 15 -23z m3171 44 c3 -5 -1 -14 -9 -21 -8 -7 -18 -30 -21 -52 -6 -32 -10
-39 -25 -35 -11 3 -19 2 -19 -2 0 -4 -23 -8 -51 -10 -39 -2 -49 1 -43 11 4 7
-2 5 -14 -6 -20 -17 -22 -17 -28 -2 -3 9 3 36 15 61 23 49 51 60 51 21 0 -14
5 -28 10 -31 6 -3 10 3 10 14 0 27 10 51 22 51 6 0 8 -18 6 -40 -2 -22 0 -40
3 -40 4 0 14 -3 23 -6 13 -5 16 1 16 25 0 17 -5 31 -11 31 -20 0 -3 24 22 31
35 10 37 10 43 0z m-3594 -31 c0 -5 -5 -10 -11 -10 -5 0 -7 5 -4 10 3 6 8 10
11 10 2 0 4 -4 4 -10z m-903 -6 c-3 -3 -12 -4 -19 -1 -8 3 -5 6 6 6 11 1 17
-2 13 -5z m4590 -26 c-3 -7 -5 -2 -5 12 0 14 2 19 5 13 2 -7 2 -19 0 -25z
m1310 -10 c-3 -7 -5 -2 -5 12 0 14 2 19 5 13 2 -7 2 -19 0 -25z m-5001 -8 c1
-24 -3 -31 -23 -36 -13 -4 -27 -4 -30 0 -4 3 2 6 13 6 16 0 17 2 4 11 -11 8
-12 12 -2 16 6 2 12 11 12 19 0 28 25 13 26 -16z m1625 0 c24 -13 25 -30 2
-31 -16 0 -15 -1 1 -8 16 -6 11 -10 -26 -19 -26 -7 -62 -12 -80 -11 -32 1 -31
1 12 13 40 11 45 15 42 39 -3 30 14 35 49 17z m2646 -62 c-3 -7 -5 -2 -5 12 0
14 2 19 5 13 2 -7 2 -19 0 -25z m720 10 c-3 -8 -6 -5 -6 6 -1 11 2 17 5 13 3
-3 4 -12 1 -19z m2408 -56 c-21 -5 -24 -2 -31 39 l-6 34 26 -35 c23 -29 24
-36 11 -38z m-3735 -39 c-13 -82 -24 -113 -41 -113 -6 0 -4 6 4 14 15 15 31
102 21 117 -3 5 0 9 5 9 6 0 10 3 10 8 -3 20 2 55 7 49 4 -4 1 -41 -6 -84z
m1317 55 c-3 -8 -6 -5 -6 6 -1 11 2 17 5 13 3 -3 4 -12 1 -19z m-3799 -5 c-10
-2 -18 -8 -18 -13 0 -4 -8 -7 -17 -6 -10 2 -24 -3 -31 -11 -19 -18 -69 -17
-69 2 0 9 14 17 36 21 20 3 43 7 51 9 24 5 68 3 48 -2z m655 -9 c3 -4 2 -14
-3 -24 -7 -13 -29 -19 -92 -25 -46 -5 -94 -9 -108 -11 -14 -1 -33 -3 -42 -3
-10 -1 -18 -7 -18 -15 0 -9 -7 -12 -20 -9 -11 3 -17 9 -14 14 3 5 -2 6 -10 3
-11 -4 -16 0 -16 14 0 25 13 30 103 37 39 4 97 10 127 14 75 11 86 12 93 5z
m-2583 -8 c0 -2 -9 -6 -20 -9 -11 -3 -18 -1 -14 4 5 9 34 13 34 5z m7524 -21
c21 -31 20 -35 -5 -35 -12 0 -19 5 -16 13 2 6 0 20 -5 30 -14 26 7 21 26 -8z
m-7587 9 c-3 -3 -12 -4 -19 -1 -8 3 -5 6 6 6 11 1 17 -2 13 -5z m1750 0 c-3
-3 -12 -4 -19 -1 -8 3 -5 6 6 6 11 1 17 -2 13 -5z m-1950 -10 c-3 -3 -12 -4
-19 -1 -8 3 -5 6 6 6 11 1 17 -2 13 -5z m8469 -6 c4 -7 3 -8 -4 -4 -7 4 -12 2
-12 -3 0 -16 -17 -13 -24 4 -7 18 29 21 40 3z m-6711 -5 c-16 -3 -37 -11 -46
-19 -8 -7 -31 -16 -50 -19 -26 -4 -29 -3 -14 4 11 5 14 10 8 10 -22 1 -14 19
10 24 12 2 45 4 72 4 30 0 38 -2 20 -4z m1042 -19 c-3 -3 -12 -4 -19 -1 -8 3
-5 6 6 6 11 1 17 -2 13 -5z m-117 -8 c0 -2 -7 -9 -15 -16 -13 -11 -14 -10 -9
4 5 14 24 23 24 12z m57 -2 c-3 -3 -12 -4 -19 -1 -8 3 -5 6 6 6 11 1 17 -2 13
-5z m5112 -18 c-2 -2 -17 -6 -34 -10 -22 -5 -26 -4 -15 4 14 9 59 15 49 6z
m1680 -40 c-5 -5 -171 -23 -344 -37 -66 -5 -192 -19 -280 -30 -88 -11 -254
-26 -370 -34 -115 -9 -253 -19 -305 -25 -52 -5 -131 -12 -175 -15 -44 -3 -143
-12 -220 -20 -77 -8 -185 -16 -240 -20 -149 -8 -331 -23 -610 -50 -241 -23
-388 -36 -655 -55 -69 -5 -156 -14 -195 -19 -38 -5 -142 -15 -230 -21 -88 -6
-266 -20 -395 -31 -377 -31 -892 -69 -935 -68 l-40 1 35 8 c41 10 182 24 445
45 240 19 404 33 525 45 52 5 239 21 415 35 176 14 388 32 470 40 83 8 290 26
460 40 171 14 405 34 520 45 116 11 323 29 460 40 138 11 318 27 400 35 83 8
245 21 360 30 116 8 264 20 330 26 350 32 586 46 574 35z m-3161 -85 c11 -6
10 -10 -4 -15 -10 -4 -21 -2 -24 5 -6 8 -9 8 -14 0 -4 -6 -12 -11 -19 -11 -6
0 -2 7 9 15 22 17 34 18 52 6z m-683 -71 c-34 -7 -40 -5 -31 8 3 5 18 7 33 4
l28 -6 -30 -6z m-695 -20 c0 -5 -5 -10 -11 -10 -5 0 -7 5 -4 10 3 6 8 10 11
10 2 0 4 -4 4 -10z m-1715 -210 c-46 -12 -123 -12 -105 0 8 5 42 9 75 9 48 -1
54 -3 30 -9z m-195 -10 c0 -5 -7 -10 -15 -10 -8 0 -15 5 -15 10 0 6 7 10 15
10 8 0 15 -4 15 -10z m-100 -10 c0 -5 -6 -10 -14 -10 -8 0 -18 5 -21 10 -3 6
3 10 14 10 12 0 21 -4 21 -10z m1318 -41 c28 -2 -75 -17 -228 -34 -80 -8 -161
-18 -180 -20 -19 -3 -64 -7 -100 -9 -118 -9 -305 -26 -326 -31 -34 -8 -286
-25 -439 -31 -77 -2 -209 -9 -293 -15 -85 -6 -156 -8 -160 -5 -3 3 3 6 14 6
10 0 96 9 189 19 94 11 285 29 425 41 140 11 334 27 430 36 180 15 501 41 580
47 25 2 51 2 58 0 8 -2 21 -4 30 -4z m-4141 -25 c-3 -3 -12 -4 -19 -1 -8 3 -5
6 6 6 11 1 17 -2 13 -5z m-116 -575 c-5 -13 -10 -19 -10 -12 -1 15 10 45 15
40 3 -2 0 -15 -5 -28z m5334 -548 c-8 -14 -25 -14 -25 0 0 5 5 7 10 4 6 -3 10
-1 10 6 0 7 3 10 6 6 3 -3 3 -10 -1 -16z m-397 -51 c-3 -54 2 -63 17 -27 14
32 79 37 95 7 15 -28 6 -36 -24 -21 -24 13 -46 8 -46 -9 0 -6 16 -16 35 -24
35 -15 39 -22 36 -61 -3 -24 -37 -55 -61 -55 -22 0 -50 26 -50 46 0 18 17 18
36 -1 12 -11 20 -12 35 -4 27 14 20 30 -19 43 -17 6 -38 20 -45 30 -13 18 -15
14 -19 -42 -5 -66 -10 -77 -30 -69 -10 3 -11 26 -5 108 11 124 12 129 33 129
13 0 15 -9 12 -50z m-616 10 c-1 -6 11 -27 28 -46 38 -43 40 -96 7 -145 -30
-44 -64 -61 -91 -47 -27 14 -45 38 -46 59 0 9 -9 19 -21 22 -17 5 -19 9 -9 27
6 11 15 18 20 15 5 -3 16 10 24 28 7 19 23 41 34 48 10 8 22 24 26 37 8 23 33
25 28 2z m276 -5 c-4 -17 -1 -25 8 -25 18 0 18 -27 0 -37 -8 -4 -17 -29 -20
-55 -5 -39 -4 -48 9 -48 19 0 20 -39 1 -46 -8 -3 -24 0 -36 6 -20 11 -21 17
-15 76 5 44 4 64 -4 64 -6 0 -11 -4 -11 -10 0 -5 -9 -10 -20 -10 -11 0 -20 5
-20 10 0 6 -9 10 -20 10 -32 0 -23 -18 18 -37 44 -22 51 -48 22 -86 -27 -34
-83 -38 -100 -8 -15 29 -12 41 10 41 11 0 20 -4 20 -9 0 -16 28 -20 40 -6 9
11 4 18 -27 32 -28 13 -39 25 -41 45 -6 51 67 91 97 54 11 -13 15 -12 30 2 10
9 18 19 18 22 2 35 5 40 24 40 17 0 20 -5 17 -25z m570 -12 c19 -16 26 -43 23
-80 -1 -9 -18 -13 -50 -13 -45 0 -49 -2 -44 -21 8 -28 30 -35 52 -15 18 16 41
22 41 9 0 -16 -46 -53 -66 -53 -37 0 -54 26 -54 81 0 42 5 55 29 80 34 34 42
35 69 12z m112 -11 c-34 -12 -50 -43 -50 -97 0 -44 -3 -55 -16 -55 -14 0 -16
8 -10 53 3 28 6 66 6 84 0 29 3 32 30 31 17 -1 33 2 37 6 4 4 9 2 12 -5 2 -7
-2 -15 -9 -17z m47 8 c1 -11 -2 -22 -8 -25 -10 -7 -13 28 -2 38 9 9 9 10 10
-13z m-1080 -24 c-4 -9 -11 -16 -17 -16 -11 0 -14 33 -3 44 11 10 26 -11 20
-28z m611 17 c20 -17 26 -37 23 -75 -1 -14 -10 -18 -46 -18 -39 0 -45 -3 -45
-20 0 -28 27 -36 49 -16 17 16 41 22 41 10 0 -18 -24 -43 -51 -53 -27 -9 -33
-8 -55 14 -13 13 -24 32 -24 42 0 15 -7 17 -50 15 -41 -3 -50 -7 -50 -23 0
-21 29 -26 47 -8 6 6 19 9 28 7 15 -3 15 -6 -5 -30 -44 -57 -110 -25 -110 53
0 45 37 103 69 107 27 4 61 -23 61 -49 0 -24 20 -35 20 -12 1 22 18 45 45 61
27 15 29 15 53 -5z m465 -45 c-6 -7 -10 -32 -10 -56 0 -23 -2 -45 -5 -48 -3
-3 -5 19 -3 48 3 68 3 68 16 68 8 0 8 -4 2 -12z"/>
<path d="M10401 7904 c0 -11 3 -14 6 -6 3 7 2 16 -1 19 -3 4 -6 -2 -5 -13z"/>
<path d="M10606 7859 c-104 -21 -190 -40 -190 -41 -1 -2 0 -40 2 -85 3 -70 6
-83 20 -83 9 1 100 18 202 38 l185 38 3 39 c3 51 -10 128 -23 131 -6 1 -95
-16 -199 -37z"/>
<path d="M10386 7813 c-7 -7 -19 -10 -68 -18 -16 -3 -40 -7 -55 -10 -28 -4
-64 -12 -73 -15 -3 -1 -14 -2 -25 -2 -17 1 -17 0 -2 -4 9 -3 17 -9 17 -14 0
-9 -26 -7 -36 3 -18 18 -26 5 -19 -30 5 -21 8 -60 7 -88 0 -27 2 -44 5 -37 2
6 9 12 14 12 6 0 7 -6 3 -12 -6 -10 -4 -10 7 -2 8 6 22 10 32 9 14 -3 16 0 7
10 -7 8 -7 15 -1 19 5 3 8 12 7 19 -3 17 -25 54 -26 42 0 -6 5 -16 11 -22 7
-7 7 -13 1 -17 -6 -3 -13 -2 -17 3 -3 6 -11 8 -19 5 -7 -3 -13 2 -13 11 0 8 6
15 13 15 13 0 29 29 33 61 0 5 5 8 10 4 6 -3 8 -15 6 -26 -3 -16 -1 -18 9 -10
7 6 16 7 20 3 4 -4 7 -2 5 3 -4 17 12 45 23 39 5 -3 4 -12 -3 -20 -13 -16 -9
-24 13 -27 7 -2 13 -7 13 -12 0 -6 -4 -9 -8 -7 -5 1 -6 -2 -2 -8 3 -5 2 -10
-4 -10 -5 0 -12 6 -14 13 -4 9 -6 9 -6 0 -1 -9 -8 -10 -28 -2 -25 9 -26 9 -12
-8 17 -20 18 -31 6 -50 -9 -15 -10 -14 26 -17 15 -2 27 0 27 4 0 3 10 7 23 8
12 0 38 4 57 7 19 3 40 6 46 7 6 1 9 10 6 20 -2 10 -12 17 -20 16 -9 -2 -17 3
-18 10 -1 6 -3 15 -4 20 -1 4 -2 10 -1 15 0 4 -2 6 -6 5 -5 -2 -8 2 -8 7 0 6
5 8 10 6 6 -2 16 -4 22 -4 10 0 10 -3 0 -16 -8 -10 -8 -13 0 -8 7 4 13 0 16
-10 2 -10 4 12 3 50 0 37 -1 67 -1 67 -1 0 -5 -3 -9 -7z m0 -39 c0 -12 -4 -20
-8 -18 -5 3 -6 9 -3 14 3 5 1 11 -5 15 -5 3 -10 -3 -10 -15 0 -12 -4 -19 -9
-16 -5 3 -14 0 -20 -8 -8 -10 -6 -17 9 -31 24 -22 18 -34 -15 -31 -14 2 -22
-1 -18 -7 4 -6 1 -7 -8 -2 -11 7 -12 6 -2 -7 7 -8 9 -19 5 -23 -4 -5 -1 -5 6
-1 7 4 10 12 7 17 -6 8 2 11 23 8 4 -1 6 -5 4 -11 -1 -5 2 -7 8 -3 6 3 7 12 3
18 -5 8 -2 8 9 0 8 -7 18 -10 21 -6 4 3 7 1 7 -5 0 -7 -3 -12 -7 -13 -50 -7
-117 -17 -141 -23 -18 -4 -21 -2 -14 7 5 7 8 20 7 29 -2 12 3 15 18 12 23 -4
60 23 51 38 -4 6 4 5 17 -2 l24 -11 -24 21 c-17 15 -27 17 -36 10 -9 -7 -15
-7 -19 -1 -4 5 -2 13 4 16 8 5 8 11 1 19 -8 9 -7 13 2 14 51 6 79 10 82 14 13
13 31 2 31 -18z m-151 -16 c3 -3 -3 -11 -12 -19 -10 -7 -15 -9 -11 -5 4 5 3
15 -3 22 -7 9 -6 12 5 10 9 -1 18 -5 21 -8z m-73 -23 c16 0 17 -13 3 -25 -18
-15 -24 -11 -30 19 -3 15 0 19 8 14 7 -4 15 -8 19 -8z m34 -87 c4 4 3 0 -4 -9
-6 -9 -10 -18 -7 -21 3 -2 -2 -5 -10 -5 -8 0 -11 5 -8 10 4 6 0 8 -10 4 -10
-4 -16 -2 -14 6 3 18 20 27 33 17 6 -6 15 -6 20 -2z"/>
<path d="M10301 7772 c-1 -8 -6 -10 -13 -6 -7 4 -10 4 -6 -1 4 -4 2 -15 -5
-24 -10 -14 -10 -14 5 -3 9 8 21 11 26 8 5 -3 17 3 26 13 13 15 14 18 1 18 -8
0 -12 -4 -9 -8 2 -4 0 -10 -5 -13 -5 -4 -12 2 -14 11 -3 10 -5 12 -6 5z"/>
<path d="M10249 7666 c0 -1 -2 -9 -4 -19 -3 -14 0 -16 10 -7 7 6 17 9 23 8 5
-2 9 1 9 7 -2 7 -33 16 -38 11z"/>
<path d="M10146 7718 c3 -5 10 -6 15 -3 13 9 11 12 -6 12 -8 0 -12 -4 -9 -9z"/>
<path d="M10458 7573 c6 -2 18 -2 25 0 6 3 1 5 -13 5 -14 0 -19 -2 -12 -5z"/>
<path d="M10105 7850 c3 -5 8 -10 11 -10 2 0 4 5 4 10 0 6 -5 10 -11 10 -5 0
-7 -4 -4 -10z"/>
<path d="M9895 7688 c-49 -11 -51 -13 -59 -65 -5 -37 -4 -43 12 -43 10 0 23 5
29 11 17 17 33 1 33 -32 0 -22 -5 -29 -20 -29 -11 0 -20 5 -20 11 0 6 -10 9
-22 7 -17 -2 -22 -9 -20 -23 5 -28 8 -29 50 -28 67 2 109 86 63 127 -15 14
-24 15 -40 7 -26 -14 -31 -14 -25 3 3 8 21 17 40 20 19 4 34 13 34 21 0 20
-10 23 -55 13z"/>
<path d="M9463 6974 c-7 -18 11 -39 26 -30 17 11 13 46 -4 46 -9 0 -18 -7 -22
-16z"/>
<path d="M8600 6760 c0 -5 5 -10 10 -10 6 0 10 5 10 10 0 6 -4 10 -10 10 -5 0
-10 -4 -10 -10z"/>
<path d="M8066 6654 c-7 -19 2 -37 15 -29 12 8 12 45 0 45 -5 0 -12 -7 -15
-16z"/>
<path d="M10143 6444 c-3 -8 -1 -20 6 -27 14 -14 47 15 37 32 -10 16 -36 13
-43 -5z"/>
<path d="M10140 6370 c-9 -16 -8 -21 5 -26 23 -9 47 4 43 23 -5 26 -35 28 -48
3z"/>
<path d="M8830 6165 c0 -8 2 -15 4 -15 2 0 6 7 10 15 3 8 1 15 -4 15 -6 0 -10
-7 -10 -15z"/>
<path d="M4700 6150 c0 -11 4 -20 8 -20 4 0 8 9 9 20 1 11 -2 20 -8 20 -5 0
-9 -9 -9 -20z"/>
<path d="M8807 6050 c-3 -11 -2 -20 3 -20 12 0 21 28 11 35 -5 2 -11 -4 -14
-15z"/>
<path d="M8640 6040 c0 -5 5 -10 10 -10 6 0 10 5 10 10 0 6 -4 10 -10 10 -5 0
-10 -4 -10 -10z"/>
<path d="M8711 6042 c-10 -19 -6 -32 11 -32 5 0 6 5 2 11 -3 6 -1 15 6 19 8 5
9 10 2 14 -6 4 -16 -2 -21 -12z"/>
<path d="M8210 5949 c0 -11 5 -17 10 -14 6 3 10 13 10 21 0 8 -4 14 -10 14 -5
0 -10 -9 -10 -21z"/>
<path d="M7500 5829 c0 -11 5 -17 10 -14 6 3 10 13 10 21 0 8 -4 14 -10 14 -5
0 -10 -9 -10 -21z"/>
<path d="M9505 5570 c-20 -22 -15 -36 10 -27 8 4 15 16 15 27 0 25 -2 25 -25
0z"/>
<path d="M4910 5559 c0 -15 4 -19 16 -15 9 3 20 6 25 6 5 0 9 7 9 15 0 9 -9
15 -25 15 -19 0 -25 -5 -25 -21z"/>
<path d="M4426 5485 c-18 -18 -21 -52 -6 -75 17 -27 45 1 45 45 0 43 -15 54
-39 30z"/>
<path d="M4583 5208 c1 -15 6 -23 11 -18 4 4 4 16 -2 26 -9 16 -10 14 -9 -8z"/>
<path d="M3590 5260 c0 -5 5 -10 11 -10 5 0 7 5 4 10 -3 6 -8 10 -11 10 -2 0
-4 -4 -4 -10z"/>
<path d="M2703 5216 c-16 -19 -4 -29 13 -11 8 7 14 16 14 19 0 10 -15 6 -27
-8z"/>
<path d="M2182 5093 l2 -22 23 21 c13 12 23 22 23 22 0 1 -11 1 -25 1 -19 0
-24 -5 -23 -22z"/>
<path d="M1871 4824 c0 -11 3 -14 6 -6 3 7 2 16 -1 19 -3 4 -6 -2 -5 -13z"/>
<path d="M3771 4774 c0 -11 3 -14 6 -6 3 7 2 16 -1 19 -3 4 -6 -2 -5 -13z"/>
<path d="M3231 4634 c0 -11 3 -14 6 -6 3 7 2 16 -1 19 -3 4 -6 -2 -5 -13z"/>
<path d="M2728 4573 c7 -3 16 -2 19 1 4 3 -2 6 -13 5 -11 0 -14 -3 -6 -6z"/>
<path d="M590 4589 c0 -5 5 -7 10 -4 6 3 10 8 10 11 0 2 -4 4 -10 4 -5 0 -10
-5 -10 -11z"/>
<path d="M675 4570 c-3 -5 -1 -10 4 -10 6 0 11 5 11 10 0 6 -2 10 -4 10 -3 0
-8 -4 -11 -10z"/>
<path d="M2345 4630 c-3 -5 -1 -10 4 -10 6 0 11 5 11 10 0 6 -2 10 -4 10 -3 0
-8 -4 -11 -10z"/>
<path d="M6323 4430 c-24 -30 -32 -53 -11 -32 20 20 24 14 20 -30 -2 -32 -1
-39 7 -28 6 8 11 30 11 48 0 32 14 44 23 20 2 -7 7 -10 11 -6 8 7 -22 58 -33
57 -3 0 -16 -13 -28 -29z"/>
<path d="M608 4013 c7 -3 16 -2 19 1 4 3 -2 6 -13 5 -11 0 -14 -3 -6 -6z"/>
<path d="M575 3980 c-16 -7 -17 -9 -3 -9 9 -1 20 4 23 9 7 11 7 11 -20 0z"/>
<path d="M9942 4138 c-15 -15 -16 -94 -2 -103 22 -13 40 17 40 66 0 50 -13 62
-38 37z"/>
<path d="M3391 3984 c0 -11 3 -14 6 -6 3 7 2 16 -1 19 -3 4 -6 -2 -5 -13z"/>
<path d="M721 3564 c0 -11 3 -14 6 -6 3 7 2 16 -1 19 -3 4 -6 -2 -5 -13z"/>
<path d="M6810 3780 c0 -5 4 -10 9 -10 6 0 13 5 16 10 3 6 -1 10 -9 10 -9 0
-16 -4 -16 -10z"/>
<path d="M6048 3603 c7 -3 16 -2 19 1 4 3 -2 6 -13 5 -11 0 -14 -3 -6 -6z"/>
<path d="M310 3500 c0 -5 7 -7 15 -4 8 4 15 8 15 10 0 2 -7 4 -15 4 -8 0 -15
-4 -15 -10z"/>
<path d="M4572 1557 c-35 -37 -23 -107 17 -107 42 0 71 79 41 115 -17 21 -33
19 -58 -8z m56 -33 c3 -34 -18 -60 -43 -50 -18 7 -21 72 -2 79 26 11 42 1 45
-29z"/>
<path d="M5410 1601 c-15 -29 -13 -31 25 -31 19 0 35 3 35 6 0 16 -22 44 -35
44 -8 0 -19 -9 -25 -19z"/>
<path d="M4962 1578 c-19 -19 -14 -28 13 -28 18 0 25 5 25 20 0 22 -20 26 -38
8z"/>
<path d="M5100 1575 c-11 -13 -8 -15 20 -15 21 0 30 4 28 13 -7 18 -33 20 -48
2z"/>
<path d="M11588 8443 c7 -3 16 -2 19 1 4 3 -2 6 -13 5 -11 0 -14 -3 -6 -6z"/>
<path d="M11505 8430 c-21 -5 -6 -8 54 -9 46 0 82 1 80 3 -10 8 -107 13 -134
6z"/>
<path d="M11410 8410 c-18 -6 -7 -8 40 -8 47 0 58 2 40 8 -14 4 -32 8 -40 8
-8 0 -26 -4 -40 -8z"/>
<path d="M11335 8390 c-4 -6 9 -10 32 -9 30 0 34 2 18 9 -27 12 -43 12 -50 0z"/>
<path d="M11208 8363 c7 -3 16 -2 19 1 4 3 -2 6 -13 5 -11 0 -14 -3 -6 -6z"/>
<path d="M11158 8353 c7 -3 16 -2 19 1 4 3 -2 6 -13 5 -11 0 -14 -3 -6 -6z"/>
<path d="M11068 8333 c7 -3 16 -2 19 1 4 3 -2 6 -13 5 -11 0 -14 -3 -6 -6z"/>
<path d="M11018 8323 c7 -3 16 -2 19 1 4 3 -2 6 -13 5 -11 0 -14 -3 -6 -6z"/>
<path d="M10870 8270 c-102 -22 -228 -48 -280 -59 -52 -11 -189 -40 -305 -65
-115 -24 -286 -61 -380 -80 -93 -20 -193 -46 -222 -57 -51 -21 -126 -69 -107
-69 6 0 14 3 17 6 4 4 24 8 45 10 21 2 103 19 183 39 80 19 154 36 165 38 10
2 27 7 37 12 10 4 21 5 24 1 3 -3 12 -1 20 5 7 6 22 9 33 6 11 -3 20 -1 20 5
0 6 9 8 20 5 11 -3 23 -1 26 5 3 5 17 7 31 3 14 -3 22 -2 19 3 -3 5 39 17 92
27 53 10 104 20 112 22 8 2 27 4 42 6 14 1 24 5 21 9 -2 5 6 8 19 8 45 -1 167
18 183 28 11 7 18 8 58 10 16 1 26 5 24 10 -3 4 6 8 19 9 13 1 35 3 49 4 14 1
25 5 25 9 0 4 19 11 43 14 23 3 48 7 55 8 6 1 12 5 12 10 0 4 11 8 24 8 14 0
28 4 31 10 4 6 -1 7 -12 3 -14 -4 -15 -3 -7 6 6 7 32 14 58 15 26 2 50 6 53
10 15 15 -74 2 -247 -34z m-1233 -306 c-3 -3 -12 -4 -19 -1 -8 3 -5 6 6 6 11
1 17 -2 13 -5z"/>
<path d="M10878 8293 c7 -3 16 -2 19 1 4 3 -2 6 -13 5 -11 0 -14 -3 -6 -6z"/>
<path d="M10738 8263 c7 -3 16 -2 19 1 4 3 -2 6 -13 5 -11 0 -14 -3 -6 -6z"/>
<path d="M10698 8253 c7 -3 16 -2 19 1 4 3 -2 6 -13 5 -11 0 -14 -3 -6 -6z"/>
<path d="M10648 8243 c7 -3 16 -2 19 1 4 3 -2 6 -13 5 -11 0 -14 -3 -6 -6z"/>
<path d="M10598 8233 c7 -3 16 -2 19 1 4 3 -2 6 -13 5 -11 0 -14 -3 -6 -6z"/>
<path d="M10408 8193 c7 -3 16 -2 19 1 4 3 -2 6 -13 5 -11 0 -14 -3 -6 -6z"/>
<path d="M10078 8123 c7 -3 16 -2 19 1 4 3 -2 6 -13 5 -11 0 -14 -3 -6 -6z"/>
<path d="M9938 8093 c7 -3 16 -2 19 1 4 3 -2 6 -13 5 -11 0 -14 -3 -6 -6z"/>
<path d="M12372 8075 c0 -16 2 -22 5 -12 2 9 2 23 0 30 -3 6 -5 -1 -5 -18z"/>
<path d="M9888 8083 c7 -3 16 -2 19 1 4 3 -2 6 -13 5 -11 0 -14 -3 -6 -6z"/>
<path d="M9838 8073 c7 -3 16 -2 19 1 4 3 -2 6 -13 5 -11 0 -14 -3 -6 -6z"/>
<path d="M9748 8053 c7 -3 16 -2 19 1 4 3 -2 6 -13 5 -11 0 -14 -3 -6 -6z"/>
<path d="M9658 8033 c7 -3 16 -2 19 1 4 3 -2 6 -13 5 -11 0 -14 -3 -6 -6z"/>
<path d="M9568 8013 c7 -3 16 -2 19 1 4 3 -2 6 -13 5 -11 0 -14 -3 -6 -6z"/>
<path d="M9518 8003 c7 -3 16 -2 19 1 4 3 -2 6 -13 5 -11 0 -14 -3 -6 -6z"/>
<path d="M8824 7911 c8 -12 -33 -21 -64 -15 -20 5 -22 3 -10 -6 12 -9 8 -11
-18 -6 -23 4 -31 2 -26 -6 5 -8 -1 -9 -20 -4 -18 4 -25 3 -21 -4 6 -9 -23 -14
-80 -13 -11 0 -26 -6 -33 -14 -7 -7 -17 -11 -22 -8 -11 7 -53 -47 -43 -54 11
-8 16 -49 9 -77 -6 -21 -12 -24 -52 -24 -71 0 -134 19 -144 44 -11 29 -28 42
-68 49 -23 5 -31 3 -26 -5 5 -8 -2 -9 -25 -5 -22 5 -30 3 -25 -4 4 -8 -4 -9
-27 -4 -26 5 -30 4 -19 -5 11 -8 4 -9 -30 -5 -36 4 -40 3 -20 -5 20 -7 14 -9
-25 -5 -37 3 -45 2 -30 -5 15 -7 12 -8 -15 -4 -30 4 -41 1 -62 -21 -22 -22
-28 -38 -30 -83 l-3 -57 -77 -1 c-76 -1 -78 0 -104 33 -41 52 -50 53 -154 32
-51 -11 -102 -16 -113 -13 -14 4 -17 3 -12 -6 6 -10 1 -12 -19 -8 -14 3 -26 2
-26 -2 0 -4 -14 -13 -30 -20 -39 -16 -43 -37 -37 -168 4 -59 6 -140 7 -181 0
-71 1 -74 37 -107 20 -18 40 -31 46 -27 5 3 21 -4 36 -15 15 -11 47 -27 71
-35 38 -12 51 -13 88 -2 24 7 55 25 69 39 36 36 68 42 110 22 20 -9 37 -15 40
-12 5 5 -78 86 -89 86 -4 0 -8 10 -8 21 0 19 2 20 16 8 9 -7 24 -18 34 -24 90
-52 125 -70 132 -68 4 2 8 -2 8 -7 0 -6 9 -10 19 -10 11 0 23 -4 26 -10 10
-16 35 -12 35 6 0 9 -13 40 -30 69 l-30 52 68 7 c37 3 98 13 137 21 38 8 83
13 100 10 16 -2 44 -6 61 -9 17 -2 53 -14 80 -25 27 -12 43 -16 37 -10 -18 18
-16 26 7 32 11 3 18 1 14 -4 -3 -5 1 -9 8 -10 41 -2 78 -10 104 -23 46 -25 49
-4 10 70 -20 38 -36 72 -36 76 0 4 11 3 25 -4 18 -8 50 -7 132 5 151 23 226
17 301 -23 33 -17 69 -40 79 -49 10 -10 39 -30 64 -44 46 -27 46 -27 70 -8 22
17 24 27 24 103 0 150 -7 253 -19 260 -8 6 -7 8 2 8 6 0 12 9 12 21 0 11 -4
17 -10 14 -5 -3 -10 3 -10 14 0 11 -5 23 -10 26 -6 4 -8 11 -5 16 9 14 -33 26
-99 28 -66 2 -123 22 -132 46 -3 8 -12 15 -20 15 -8 0 -14 3 -15 8 -8 73 -20
96 -60 116 -37 18 -42 19 -35 7z m36 -71 c0 -5 -7 -10 -15 -10 -8 0 -15 -4
-15 -10 0 -5 5 -9 11 -7 6 1 13 -8 14 -21 2 -27 -33 -52 -45 -33 -5 9 -10 8
-20 -4 -16 -19 -40 -20 -40 0 0 9 6 12 15 9 8 -4 15 -1 15 5 0 6 -6 10 -12 9
-19 -4 -22 38 -3 46 22 8 38 -2 31 -20 -3 -8 -1 -14 4 -14 6 0 10 11 10 24 0
22 10 30 43 35 4 0 7 -3 7 -9z m-120 -52 c0 -44 -13 -62 -39 -55 -12 3 -21 1
-21 -5 0 -5 -9 -7 -19 -3 -11 3 -22 1 -26 -5 -14 -23 -22 2 -12 40 13 47 29
51 44 13 l11 -28 1 33 c1 40 21 43 21 2 0 -16 5 -30 10 -30 6 0 10 16 10 35 0
19 5 35 10 35 6 0 10 -15 10 -32z m-126 -7 c9 -14 -4 -41 -19 -41 -7 0 -15
-10 -18 -22 -4 -12 -8 -20 -11 -17 -7 7 -14 78 -8 84 9 8 50 6 56 -4z m-414
-101 c0 -20 5 -30 15 -30 27 0 16 -16 -19 -27 -24 -8 -38 -7 -45 0 -8 8 -11 8
-11 -1 0 -7 -4 -12 -10 -12 -5 0 -10 17 -10 39 0 32 4 40 22 44 13 4 26 1 30
-6 5 -8 8 -7 8 6 0 9 5 17 10 17 6 0 10 -13 10 -30z m-92 -18 c3 -8 -3 -12
-14 -10 -11 2 -20 -4 -22 -15 -3 -15 0 -18 18 -12 16 5 21 3 18 -6 -3 -8 -16
-14 -29 -15 -45 -1 -69 -22 -69 -59 0 -25 4 -35 16 -35 8 0 12 -4 9 -10 -3 -5
-15 -10 -26 -10 -15 0 -19 7 -19 38 0 21 5 43 12 50 9 9 9 12 0 12 -7 0 -12 5
-12 11 0 6 7 9 15 6 8 -4 17 -2 20 2 2 5 -5 11 -16 14 -28 7 -21 41 9 45 17 3
22 -2 23 -20 0 -15 3 -18 6 -8 15 39 51 52 61 22z m122 -50 c0 -4 -5 -13 -12
-20 -8 -8 -8 -15 2 -27 10 -12 10 -19 2 -27 -9 -9 -12 -8 -12 3 0 8 -3 10 -8
4 -13 -18 -69 -34 -81 -22 -6 6 -15 4 -26 -7 -9 -9 -20 -16 -24 -16 -18 0 -33
31 -27 54 7 30 37 43 50 22 9 -13 11 -12 22 2 7 9 32 22 56 28 55 15 58 16 58
6z m-620 -41 c0 -6 -5 -13 -10 -16 -6 -4 -10 -14 -9 -23 3 -29 -1 -42 -11 -42
-5 0 -10 15 -10 33 -1 27 -2 29 -11 14 -6 -10 -8 -25 -5 -33 4 -12 1 -14 -14
-9 -11 4 -20 2 -20 -4 0 -6 -4 -11 -10 -11 -5 0 -10 10 -10 21 0 21 -1 21 -25
-5 -32 -35 -37 -33 -33 12 3 32 6 37 28 37 14 0 27 2 30 5 5 6 76 27 98 29 6
0 12 -3 12 -8z m1277 -88 c-3 -10 -5 -2 -5 17 0 19 2 27 5 18 2 -10 2 -26 0
-35z m-1274 -30 c4 -45 -9 -61 -30 -34 -11 14 -12 14 -13 -2 0 -10 -4 -16 -9
-12 -5 3 -13 0 -16 -5 -4 -6 -17 -10 -28 -9 -12 1 -30 -1 -39 -5 -10 -5 -23
-6 -29 -4 -17 6 -20 55 -3 69 19 16 45 4 38 -18 -3 -10 2 -6 10 8 16 28 75 46
87 27 3 -5 9 1 12 13 8 31 15 22 20 -28z m1262 -12 c-3 -6 -11 -11 -16 -11 -5
0 -4 6 3 14 14 16 24 13 13 -3z m-605 -115 c0 -2 -8 -10 -17 -17 -16 -13 -17
-12 -4 4 13 16 21 21 21 13z m914 -50 c10 -8 15 -20 11 -26 -8 -13 -36 9 -68
55 l-22 30 30 -22 c17 -13 38 -29 49 -37z m-1524 -86 c0 -5 -8 -10 -17 -10
-15 0 -16 2 -3 10 19 12 20 12 20 0z"/>
<path d="M8172 7650 c0 -14 2 -19 5 -12 2 6 2 18 0 25 -3 6 -5 1 -5 -13z"/>
<path d="M8165 7580 c-3 -5 -12 -7 -20 -3 -10 3 -15 -1 -15 -15 0 -14 6 -19
23 -18 16 1 22 7 22 23 0 26 -1 27 -10 13z"/>
<path d="M8064 7557 c-9 -24 6 -44 18 -22 7 11 6 21 -1 28 -7 7 -12 6 -17 -6z"/>
<path d="M7460 7519 c0 -5 5 -7 10 -4 6 3 10 8 10 11 0 2 -4 4 -10 4 -5 0 -10
-5 -10 -11z"/>
<path d="M7513 7434 c-8 -20 4 -29 20 -16 8 7 17 9 20 5 4 -3 7 0 7 8 0 20
-40 22 -47 3z"/>
<path d="M12383 7860 c0 -25 2 -35 4 -22 2 12 2 32 0 45 -2 12 -4 2 -4 -23z"/>
<path d="M9280 7720 c0 -18 4 -29 10 -25 6 3 10 15 10 25 0 10 -4 22 -10 25
-6 4 -10 -7 -10 -25z"/>
<path d="M12392 7670 c0 -19 2 -27 5 -17 2 9 2 25 0 35 -3 9 -5 1 -5 -18z"/>
<path d="M12403 7480 c0 -36 2 -50 4 -32 2 17 2 47 0 65 -2 17 -4 3 -4 -33z"/>
<path d="M6900 7490 c12 -9 7 -10 -20 -5 -27 5 -32 4 -20 -5 12 -9 6 -10 -23
-5 -29 5 -37 3 -32 -5 6 -9 -1 -10 -25 -5 -23 5 -31 4 -25 -4 5 -8 -1 -10 -19
-5 -16 4 -26 2 -26 -5 0 -6 -5 -11 -11 -11 -5 0 -7 5 -4 10 12 19 -11 10 -46
-20 -29 -23 -35 -35 -32 -54 3 -14 3 -36 -1 -49 -5 -22 -7 -23 -82 -16 -67 7
-80 11 -98 34 -26 33 -44 34 -169 6 -55 -11 -103 -19 -107 -16 -5 3 -11 1 -15
-5 -3 -5 -15 -10 -25 -10 -26 0 -44 -37 -41 -84 l3 -38 -77 4 c-70 3 -79 6
-97 31 -18 25 -25 27 -86 27 -45 0 -62 -3 -53 -9 10 -6 1 -8 -25 -4 -46 6
-143 -12 -169 -31 -13 -10 -17 -26 -17 -65 l2 -52 -75 2 c-60 2 -78 6 -92 21
-32 36 -48 39 -123 23 -39 -8 -89 -15 -111 -15 -93 0 -101 -19 -100 -243 2
-250 5 -254 182 -222 95 18 97 18 135 -2 37 -20 144 -45 153 -37 2 2 -1 15 -7
29 l-12 25 38 -16 c20 -9 44 -17 54 -18 9 -1 23 -8 32 -15 9 -8 16 -10 16 -6
0 4 7 2 15 -5 29 -24 15 7 -35 77 -47 68 -48 70 -21 60 21 -7 52 -5 127 9 54
10 106 18 114 17 8 0 64 -20 124 -42 61 -23 114 -41 120 -41 5 0 -5 16 -24 35
-19 19 -28 35 -21 35 7 0 41 -16 75 -35 35 -19 66 -35 69 -35 17 0 3 34 -38
94 -46 68 -55 87 -32 67 10 -8 40 -7 113 4 54 9 107 18 117 21 11 3 41 -10 80
-36 72 -49 133 -63 144 -34 3 11 11 22 16 25 5 4 -7 19 -27 34 -66 51 -29 38
57 -19 46 -31 89 -56 96 -56 23 0 9 47 -33 113 -44 66 -48 97 -5 35 47 -68 51
-69 92 -34 45 39 134 86 167 88 14 1 51 -13 83 -31 78 -43 85 -32 11 15 -71
45 -69 43 -61 50 3 3 27 -7 53 -22 l48 -28 -19 26 c-11 14 -22 24 -24 22 -6
-6 -42 38 -36 44 3 3 23 -4 44 -16 21 -12 45 -21 52 -19 8 2 11 2 6 0 -10 -6
2 -23 17 -23 13 0 13 13 2 112 -5 37 -5 76 -1 85 5 10 10 41 12 69 5 60 -11
81 -84 111 -28 12 -46 26 -49 40 -8 30 -33 50 -74 57 -27 6 -32 5 -20 -4z m10
-95 c0 -6 -7 -20 -15 -33 -14 -20 -14 -21 0 -16 9 4 15 1 15 -9 0 -16 -20 -27
-51 -27 -24 0 -24 5 2 47 12 19 19 37 15 40 -3 4 -6 1 -6 -5 0 -7 -7 -12 -15
-12 -18 0 -9 29 14 48 13 11 18 10 28 -5 7 -9 13 -22 13 -28z m-80 -35 c0 -33
-4 -60 -10 -60 -5 0 -10 16 -10 36 0 21 -4 33 -10 29 -16 -10 -11 17 7 37 9
10 18 18 20 18 1 0 3 -27 3 -60z m-50 31 c0 -5 -9 -11 -20 -14 -11 -3 -20 -10
-20 -17 0 -7 8 -9 20 -5 12 4 20 2 20 -5 0 -7 -9 -14 -20 -17 -13 -3 -20 -14
-20 -29 0 -13 -4 -24 -10 -24 -6 0 -10 27 -10 60 l0 60 30 0 c17 0 30 -4 30
-9z m-430 -131 c0 -44 -4 -60 -14 -60 -18 0 -30 88 -15 106 21 26 29 14 29
-46z m-50 -15 c0 -64 -15 -72 -30 -16 -11 43 -5 71 16 71 10 0 14 -15 14 -55z
m-50 30 c0 -8 -9 -15 -20 -15 -27 0 -25 -18 3 -23 l22 -4 -22 -8 c-15 -5 -23
-15 -23 -31 0 -13 -4 -24 -10 -24 -5 0 -10 24 -10 54 0 44 4 55 18 59 33 9 42
7 42 -8z m-573 -51 c-3 -3 -12 -4 -19 -1 -8 3 -5 6 6 6 11 1 17 -2 13 -5z
m157 -47 c17 -68 -43 -122 -63 -55 l-9 33 -1 -42 c-1 -51 -21 -59 -21 -9 0 19
-5 36 -11 38 -9 3 -9 10 0 26 14 26 31 29 31 5 0 -14 3 -13 16 5 20 29 50 29
58 -1z m-119 -18 c-4 -5 -15 -9 -26 -9 -10 0 -19 -4 -19 -10 0 -5 9 -10 20
-10 11 0 20 -4 20 -9 0 -5 -9 -11 -20 -14 -12 -3 -20 -14 -20 -26 0 -12 -5
-21 -10 -21 -6 0 -9 21 -7 52 2 46 6 53 27 59 28 7 43 2 35 -12z m1115 2 c0
-11 -4 -23 -10 -26 -6 -4 -10 5 -10 19 0 14 5 26 10 26 6 0 10 -9 10 -19z m40
-5 c0 -15 -18 -31 -26 -23 -7 7 7 37 17 37 5 0 9 -6 9 -14z m-83 -21 c8 -22
-6 -33 -17 -15 -13 20 -12 30 0 30 6 0 13 -7 17 -15z m-1419 -76 l-3 -64 -5
72 c-3 40 -1 68 3 64 4 -4 7 -37 5 -72z m1532 62 c0 -15 -52 -48 -87 -56 -26
-5 -33 -3 -33 9 0 15 9 18 58 20 9 1 23 9 30 19 14 18 32 23 32 8z m-132 -38
c2 -8 -5 -13 -17 -13 -12 0 -21 6 -21 16 0 18 31 15 38 -3z m-1480 -5 c27 -27
3 -108 -31 -108 -14 0 -18 5 -15 18 8 29 -14 63 -32 52 -13 -8 -12 -10 3 -10
24 0 22 -21 -3 -27 -11 -3 -20 -14 -20 -24 0 -11 -4 -19 -10 -19 -5 0 -10 23
-10 50 0 45 3 52 27 61 18 7 28 6 33 -1 5 -7 11 -6 20 5 15 18 22 19 38 3z
m992 -44 c0 -8 -5 -12 -10 -9 -6 4 -8 11 -5 16 9 14 15 11 15 -7z m40 -3 c0
-6 -4 -13 -10 -16 -5 -3 -10 1 -10 9 0 9 5 16 10 16 6 0 10 -4 10 -9z m-70
-15 c0 -3 -4 -8 -10 -11 -5 -3 -10 -1 -10 4 0 6 5 11 10 11 6 0 10 -2 10 -4z
m90 -21 c0 -8 -4 -15 -10 -15 -5 0 -10 7 -10 15 0 8 5 15 10 15 6 0 10 -7 10
-15z m-30 -20 c0 -8 -6 -15 -12 -15 -7 0 -23 -3 -35 -6 -17 -5 -23 -2 -23 9 0
14 17 21 58 26 6 0 12 -6 12 -14z m-522 -18 c17 -13 15 -78 -4 -105 -16 -24
-44 -28 -75 -12 -30 16 -26 80 7 113 25 25 43 26 72 4z m442 19 c0 -3 -4 -8
-10 -11 -5 -3 -10 -1 -10 4 0 6 5 11 10 11 6 0 10 -2 10 -4z m-353 -118 c-3
-8 -6 -5 -6 6 -1 11 2 17 5 13 3 -3 4 -12 1 -19z m-602 -8 c32 -35 0 -130 -43
-130 -49 0 -68 76 -31 124 24 31 49 33 74 6z"/>
<path d="M5802 7140 c0 -19 2 -27 5 -17 2 9 2 25 0 35 -3 9 -5 1 -5 -18z"/>
<path d="M5222 6843 c-21 -8 -34 -51 -22 -74 25 -46 80 -1 66 55 -6 25 -17 30
-44 19z m34 -40 c1 -13 -3 -20 -8 -16 -6 3 -14 -1 -19 -8 -6 -10 -9 -4 -9 19
0 27 4 33 18 30 9 -2 17 -13 18 -25z"/>
<path d="M12413 7270 c0 -47 2 -66 4 -42 2 23 2 61 0 85 -2 23 -4 4 -4 -43z"/>
<path d="M9288 7264 c-4 -3 -4 -12 -2 -19 3 -7 1 -23 -5 -34 -10 -17 -9 -20 4
-15 19 8 31 52 18 65 -5 5 -12 7 -15 3z"/>
<path d="M5378 7163 c6 -2 18 -2 25 0 6 3 1 5 -13 5 -14 0 -19 -2 -12 -5z"/>
<path d="M12423 7080 c0 -41 2 -58 4 -37 2 20 2 54 0 75 -2 20 -4 3 -4 -38z"/>
<path d="M4600 6999 c12 -8 9 -10 -12 -6 -15 2 -29 -1 -31 -7 -2 -7 -31 -10
-77 -9 -49 2 -84 -3 -105 -13 -36 -17 -59 -56 -43 -72 5 -5 7 -18 4 -29 -5
-17 -13 -18 -76 -12 -43 4 -77 12 -88 23 -10 9 -26 16 -36 16 -9 0 -14 5 -11
10 4 6 28 8 58 6 l52 -5 -43 11 c-45 12 -122 -2 -122 -22 0 -6 -9 -10 -20 -10
-11 0 -20 -4 -20 -10 0 -5 -25 -8 -55 -6 -30 2 -55 0 -55 -4 0 -4 -11 -5 -25
-2 -21 4 -24 1 -18 -13 4 -11 2 -16 -3 -12 -6 3 -10 -12 -9 -36 l0 -42 -70 3
c-41 2 -75 8 -85 17 -13 12 -15 7 -16 -48 -3 -354 -2 -349 -79 -363 -36 -7
-39 -6 -26 9 7 10 10 17 7 17 -4 0 -1 10 6 23 6 12 11 34 9 49 -1 14 2 29 8
33 6 3 11 17 11 30 0 13 5 27 10 30 17 10 11 39 -10 53 -12 7 -20 8 -20 2 0
-6 -8 -5 -20 2 -11 7 -20 18 -20 25 0 7 -7 13 -15 13 -8 0 -15 -5 -15 -11 0
-5 5 -7 10 -4 17 10 11 -4 -9 -24 -16 -16 -22 -17 -30 -7 -11 14 -9 88 4 119
8 18 35 24 35 7 0 -17 25 -11 48 10 14 14 22 16 22 8 0 -8 5 -5 11 5 6 10 20
22 32 27 35 14 -3 12 -82 -5 -39 -8 -84 -12 -100 -9 -44 9 -82 -31 -75 -78 l6
-34 -71 7 c-39 3 -78 12 -86 19 -9 8 -37 15 -62 16 -30 1 -41 -2 -32 -8 9 -5
0 -6 -25 -2 -22 4 -36 3 -33 -2 3 -5 -17 -7 -43 -6 -38 3 -52 0 -69 -17 -18
-18 -21 -33 -21 -118 1 -66 5 -104 14 -115 17 -22 18 -22 46 2 25 22 36 104
16 129 -8 11 -8 13 2 7 8 -5 12 2 13 26 1 18 1 39 0 46 -1 6 5 12 14 12 9 0
13 -5 10 -10 -8 -13 28 -8 65 8 15 6 19 11 10 12 -8 1 5 8 29 16 25 8 47 12
49 9 9 -9 1 -359 -9 -377 -12 -23 -43 -36 -129 -53 -46 -9 -55 -13 -32 -14 18
-1 62 6 97 15 64 16 71 16 140 -12 15 -6 10 5 -18 39 -21 26 -36 47 -33 47 8
0 175 -83 229 -115 26 -15 50 -26 51 -24 2 2 -23 37 -56 78 -33 40 -55 71 -49
67 26 -16 66 -15 160 4 l100 20 53 -21 52 -20 -18 20 c-11 12 -15 21 -10 21 5
0 2 4 -6 10 -8 5 -11 12 -8 16 4 4 58 -19 119 -50 62 -30 115 -54 117 -51 3 2
-21 33 -52 69 -53 61 -73 93 -42 67 16 -14 69 -9 181 16 69 15 71 15 130 -10
42 -18 62 -22 67 -14 4 6 1 18 -5 26 -20 24 37 5 116 -40 38 -22 72 -37 75
-34 3 3 -23 42 -58 87 -34 46 -56 77 -49 71 19 -19 102 -16 193 7 l79 19 78
-40 c43 -21 81 -39 84 -39 18 0 -2 30 -47 72 -48 44 -50 66 -3 35 11 -8 29
-16 41 -19 18 -5 20 -2 17 21 -12 69 -21 157 -17 163 2 4 6 29 9 56 4 50 3 51
-50 100 -42 40 -50 52 -37 55 12 3 10 5 -6 6 -13 0 -38 12 -56 26 -18 14 -37
25 -42 25 -5 0 -2 -5 6 -11z m14 -416 c-9 -14 -21 -22 -30 -19 -8 3 -14 1 -14
-4 0 -6 -10 -10 -22 -9 l-23 0 23 10 c13 5 20 14 16 20 -4 8 1 9 17 5 20 -6
21 -5 7 4 -10 6 -18 20 -18 31 0 11 5 17 10 14 10 -6 15 13 12 48 -1 9 5 17
13 17 12 0 15 24 17 143 2 132 3 128 5 -47 3 -160 1 -193 -13 -213z m-141 380
c-7 -2 -21 -2 -30 0 -10 3 -4 5 12 5 17 0 24 -2 18 -5z m27 -40 c0 -14 2 -15
9 -4 10 16 81 7 81 -11 0 -5 -7 -8 -15 -4 -9 3 -15 0 -15 -10 0 -8 5 -12 10
-9 21 13 9 -29 -16 -51 -29 -28 -28 -28 -55 -11 -17 10 -22 9 -33 -5 -21 -29
-26 -21 -26 38 0 47 3 57 20 61 11 3 20 9 20 14 0 5 5 9 10 9 6 0 10 -8 10
-17z m-342 -141 c2 -82 1 -92 -15 -92 -13 0 -14 3 -5 12 18 18 16 102 -2 95
-15 -6 -29 50 -14 59 4 3 8 -4 8 -15 0 -12 4 -21 10 -21 11 0 9 28 -4 49 -6 9
-5 12 5 9 10 -3 15 -29 17 -96z m-111 49 c15 5 32 8 40 5 15 -6 18 -42 4 -50
-5 -3 -7 -16 -4 -29 3 -15 2 -18 -4 -9 -7 9 -13 6 -21 -13 -12 -25 -35 -27
-27 -2 15 49 15 67 0 67 -9 0 -13 -5 -10 -10 4 -6 3 -25 -1 -43 -6 -28 -8 -30
-16 -12 -7 17 -8 15 -5 -7 3 -22 0 -28 -14 -28 -16 0 -19 8 -19 50 0 58 27
113 42 86 7 -12 14 -13 35 -5z m113 -206 c0 -88 -17 -152 -43 -159 -26 -7 -67
-7 -50 0 7 3 9 12 6 21 -4 10 -2 14 4 10 6 -4 9 3 7 18 -1 15 4 29 13 34 10 5
14 16 10 30 -5 22 8 30 16 9 3 -7 3 7 1 32 -3 41 6 59 29 60 4 0 7 -25 7 -55z
m-1087 38 c-7 -2 -19 -2 -25 0 -7 3 -2 5 12 5 14 0 19 -2 13 -5z m1432 -115
c6 -4 2 -8 -7 -8 -10 0 -18 7 -18 17 0 9 3 12 8 7 4 -5 12 -12 17 -16z m-495
-94 c0 -8 -9 -14 -22 -13 -19 1 -19 2 -5 6 11 3 16 11 13 19 -3 9 -1 12 4 9 6
-3 10 -13 10 -21z m-481 -36 c-3 -32 10 -58 30 -59 20 -2 -36 -16 -64 -17 -20
-1 -20 -1 0 7 11 4 20 16 21 27 2 50 4 64 10 64 3 0 4 -10 3 -22z"/>
<path d="M4733 6993 c9 -2 25 -2 35 0 9 3 1 5 -18 5 -19 0 -27 -2 -17 -5z"/>
<path d="M12434 6865 c0 -49 1 -71 3 -48 2 23 2 64 0 90 -2 26 -3 8 -3 -42z"/>
<path d="M4273 6893 c9 -2 23 -2 30 0 6 3 -1 5 -18 5 -16 0 -22 -2 -12 -5z"/>
<path d="M12444 6655 c0 -55 1 -76 3 -47 2 29 2 74 0 100 -2 26 -3 2 -3 -53z"/>
<path d="M3200 6710 c-13 -9 -13 -10 0 -9 8 0 24 4 35 9 l20 9 -20 0 c-11 0
-27 -4 -35 -9z"/>
<path d="M9325 6570 c3 -25 12 -50 20 -56 8 -6 15 -16 15 -22 0 -6 6 -9 14 -6
9 3 19 -6 27 -25 12 -26 29 -42 29 -26 0 10 -71 131 -91 155 l-21 25 7 -45z"/>
<path d="M3098 6593 c7 -3 16 -2 19 1 4 3 -2 6 -13 5 -11 0 -14 -3 -6 -6z"/>
<path d="M2545 6560 c3 -5 11 -10 16 -10 6 0 7 5 4 10 -3 6 -11 10 -16 10 -6
0 -7 -4 -4 -10z"/>
<path d="M3090 6518 c-22 -23 -18 -71 8 -100 21 -25 26 -23 46 18 32 68 -9
130 -54 82z"/>
<path d="M12453 6460 c0 -47 2 -66 4 -42 2 23 2 61 0 85 -2 23 -4 4 -4 -43z"/>
<path d="M9293 6408 c2 -7 0 -23 -4 -36 -8 -20 -7 -21 11 -12 24 13 28 60 4
60 -9 0 -14 -6 -11 -12z"/>
<path d="M12464 6245 c0 -55 1 -76 3 -47 2 29 2 74 0 100 -2 26 -3 2 -3 -53z"/>
<path d="M9298 6215 c-7 -8 3 -65 12 -65 13 0 21 35 14 54 -6 16 -16 20 -26
11z"/>
<path d="M12474 6040 c0 -58 1 -81 3 -52 2 28 2 76 0 105 -2 28 -3 5 -3 -53z"/>
<path d="M4270 6079 c0 -5 5 -7 10 -4 6 3 10 8 10 11 0 2 -4 4 -10 4 -5 0 -10
-5 -10 -11z"/>
<path d="M3756 6071 c-17 -7 -18 -8 -3 -14 9 -3 29 0 44 8 l28 15 -25 -1 c-14
0 -34 -4 -44 -8z"/>
<path d="M1096 5999 c-8 -41 -8 -49 2 -49 4 0 8 18 10 40 3 48 -3 52 -12 9z"/>
<path d="M3348 5993 c7 -3 16 -2 19 1 4 3 -2 6 -13 5 -11 0 -14 -3 -6 -6z"/>
<path d="M9263 5955 c0 -22 2 -30 4 -17 2 12 2 30 0 40 -3 9 -5 -1 -4 -23z"/>
<path d="M3861 5944 c0 -11 3 -14 6 -6 3 7 2 16 -1 19 -3 4 -6 -2 -5 -13z"/>
<path d="M12484 5840 c0 -52 1 -74 3 -47 2 26 2 68 0 95 -2 26 -3 4 -3 -48z"/>
<path d="M2507 5889 c8 -8 16 -8 30 0 16 9 14 10 -11 11 -22 0 -27 -3 -19 -11z"/>
<path d="M2828 5893 c7 -3 16 -2 19 1 4 3 -2 6 -13 5 -11 0 -14 -3 -6 -6z"/>
<path d="M9262 5860 c0 -19 2 -27 5 -17 2 9 2 25 0 35 -3 9 -5 1 -5 -18z"/>
<path d="M2483 5863 c0 -8 9 -11 26 -6 36 8 36 10 3 15 -19 3 -29 0 -29 -9z"/>
<path d="M2830 5870 c-9 -6 -10 -10 -3 -10 6 0 15 5 18 10 8 12 4 12 -15 0z"/>
<path d="M2471 5724 c0 -11 3 -14 6 -6 3 7 2 16 -1 19 -3 4 -6 -2 -5 -13z"/>
<path d="M12492 5635 c0 -55 6 -201 12 -325 7 -124 13 -189 14 -145 0 44 -5
190 -12 325 -8 141 -13 202 -14 145z"/>
<path d="M7770 5646 c0 -3 9 -10 20 -16 11 -6 20 -8 20 -6 0 3 -9 10 -20 16
-11 6 -20 8 -20 6z"/>
<path d="M9058 5613 c-22 -6 -23 -29 -2 -37 22 -8 54 11 48 29 -6 15 -14 17
-46 8z"/>
<path d="M8891 5588 c-42 -8 -51 -12 -38 -19 20 -11 109 2 109 16 -1 13 -10
14 -71 3z"/>
<path d="M8568 5533 c12 -2 32 -2 45 0 12 2 2 4 -23 4 -25 0 -35 -2 -22 -4z"/>
<path d="M8430 5510 c0 -19 31 -23 48 -6 15 15 14 16 -16 16 -18 0 -32 -5 -32
-10z"/>
<path d="M8265 5490 c-26 -7 -24 -8 20 -9 28 0 57 4 65 9 18 12 -39 12 -85 0z"/>
<path d="M2486 5475 c-6 -16 19 -33 31 -21 4 3 -2 6 -13 6 -14 0 -16 2 -5 9 8
5 9 11 3 15 -5 3 -13 -1 -16 -9z"/>
<path d="M7968 5438 c8 -8 20 -8 44 -1 l33 11 -44 1 c-34 1 -42 -2 -33 -11z"/>
<path d="M7843 5418 c2 -7 14 -13 27 -13 13 0 25 6 28 13 2 8 -7 12 -28 12
-21 0 -30 -4 -27 -12z"/>
<path d="M8925 5100 c-3 -5 3 -10 15 -10 12 0 18 5 15 10 -3 6 -10 10 -15 10
-5 0 -12 -4 -15 -10z"/>
<path d="M12524 4960 c0 -58 1 -81 3 -52 2 28 2 76 0 105 -2 28 -3 5 -3 -53z"/>
<path d="M12533 4715 c-1 -66 5 -221 11 -345 9 -148 13 -191 13 -125 1 55 -5
210 -12 345 -9 188 -12 217 -12 125z"/>
<path d="M8280 4792 c-131 -10 -257 -34 -282 -52 -29 -21 -38 -15 -15 10 6 8
2 6 -11 -5 -12 -10 -19 -21 -14 -24 5 -3 5 -37 1 -76 -17 -151 -24 -233 -24
-292 0 -55 3 -65 31 -95 16 -18 43 -51 59 -73 16 -22 30 -42 32 -44 1 -2 11 3
21 12 22 20 32 13 32 -22 1 -39 22 -61 61 -61 55 0 210 27 258 44 31 11 59 14
93 10 45 -6 48 -5 45 14 -2 12 -11 30 -22 42 -22 24 -15 36 14 21 11 -6 22 -8
24 -4 6 12 2 57 -6 70 -4 6 -1 18 7 25 25 25 35 119 33 302 -2 169 -3 179 -22
187 -29 11 -115 11 -115 -1 0 -12 -97 -13 -104 -1 -7 11 -50 17 -96 13z m-60
-220 c0 -24 -1 -25 -20 -7 -20 18 -20 17 -20 -23 0 -50 -8 -72 -26 -72 -10 0
-12 13 -8 53 5 46 4 50 -9 35 -18 -23 -27 -23 -27 -1 0 9 14 32 32 50 l32 33
23 -22 c13 -12 23 -33 23 -46z"/>
<path d="M9138 4593 c7 -3 16 -2 19 1 4 3 -2 6 -13 5 -11 0 -14 -3 -6 -6z"/>
<path d="M9366 4427 c3 -10 9 -15 12 -12 3 3 0 11 -7 18 -10 9 -11 8 -5 -6z"/>
<path d="M9430 4305 c0 -5 5 -17 10 -25 5 -8 10 -10 10 -5 0 6 -5 17 -10 25
-5 8 -10 11 -10 5z"/>
<path d="M9478 4213 c7 -3 16 -2 19 1 4 3 -2 6 -13 5 -11 0 -14 -3 -6 -6z"/>
<path d="M9326 4033 c10 -41 22 -49 29 -20 8 30 0 47 -21 47 -11 0 -13 -7 -8
-27z"/>
<path d="M7292 3805 c0 -16 2 -22 5 -12 2 9 2 23 0 30 -3 6 -5 -1 -5 -18z"/>
<path d="M7278 3523 c-2 -16 -1 -55 3 -88 6 -58 6 -57 8 28 1 87 -3 111 -11
60z"/>
</g>
</svg>
